<svg contentScriptType="text/ecmascript" xmlns:xlink="http://www.w3.org/1999/xlink" zoomAndPan="magnify" contentStyleType="text/css" width="78px" height="108px"  viewBox="0 0 78 108" preserveAspectRatio="xMidYMid meet" xmlns="http://www.w3.org/2000/svg" version="1.0">
<g>


<image x="2"  y="2" width="14px" height="14px" xlink:href="../../../biblioteca/Widgets/heart0.svg"> </image>
<image x="16" y="2" width="14px" height="14px" xlink:href="../../../biblioteca/Widgets/heart0.svg"> </image>
<image x="32" y="2" width="14px" height="14px" xlink:href="../../../biblioteca/Widgets/heart0.svg"> </image>
<image x="48" y="2" width="14px" height="14px" xlink:href="../../../biblioteca/Widgets/heart0.svg"> </image>
<image x="64" y="2" width="14px" height="14px" xlink:href="../../../biblioteca/Widgets/heart0.svg"> </image>

<image x="2"  y="20" width="14px" height="14px" xlink:href="../../../biblioteca/Widgets/heart.svg"> </image>
<image x="16" y="20" width="14px" height="14px" xlink:href="../../../biblioteca/Widgets/heart0.svg"> </image>
<image x="32" y="20" width="14px" height="14px" xlink:href="../../../biblioteca/Widgets/heart0.svg"> </image>
<image x="48" y="20" width="14px" height="14px" xlink:href="../../../biblioteca/Widgets/heart0.svg"> </image>
<image x="64" y="20" width="14px" height="14px" xlink:href="../../../biblioteca/Widgets/heart0.svg"> </image>

<image x="2"  y="38" width="14px" height="14px" xlink:href="../../../biblioteca/Widgets/heart.svg"> </image>
<image x="16" y="38" width="14px" height="14px" xlink:href="../../../biblioteca/Widgets/heart.svg"> </image>
<image x="32" y="38" width="14px" height="14px" xlink:href="../../../biblioteca/Widgets/heart0.svg"> </image>
<image x="48" y="38" width="14px" height="14px" xlink:href="../../../biblioteca/Widgets/heart0.svg"> </image>
<image x="64" y="38" width="14px" height="14px" xlink:href="../../../biblioteca/Widgets/heart0.svg"> </image>

<image x="2"  y="56" width="14px" height="14px" xlink:href="../../../biblioteca/Widgets/heart.svg"> </image>
<image x="16" y="56" width="14px" height="14px" xlink:href="../../../biblioteca/Widgets/heart.svg"> </image>
<image x="32" y="56" width="14px" height="14px" xlink:href="../../../biblioteca/Widgets/heart.svg"> </image>
<image x="48" y="56" width="14px" height="14px" xlink:href="../../../biblioteca/Widgets/heart0.svg"> </image>
<image x="64" y="56" width="14px" height="14px" xlink:href="../../../biblioteca/Widgets/heart0.svg"> </image>

<image x="2"  y="74" width="14px" height="14px" xlink:href="../../../biblioteca/Widgets/heart.svg"> </image>
<image x="16" y="74" width="14px" height="14px" xlink:href="../../../biblioteca/Widgets/heart.svg"> </image>
<image x="32" y="74" width="14px" height="14px" xlink:href="../../../biblioteca/Widgets/heart.svg"> </image>
<image x="48" y="74" width="14px" height="14px" xlink:href="../../../biblioteca/Widgets/heart.svg"> </image>
<image x="64" y="74" width="14px" height="14px" xlink:href="../../../biblioteca/Widgets/heart0.svg"> </image>

<image x="2"  y="92" width="14px" height="14px" xlink:href="../../../biblioteca/Widgets/heart.svg"> </image>
<image x="16" y="92" width="14px" height="14px" xlink:href="../../../biblioteca/Widgets/heart.svg"> </image>
<image x="32" y="92" width="14px" height="14px" xlink:href="../../../biblioteca/Widgets/heart.svg"> </image>
<image x="48" y="92" width="14px" height="14px" xlink:href="../../../biblioteca/Widgets/heart.svg"> </image>
<image x="64" y="92" width="14px" height="14px" xlink:href="../../../biblioteca/Widgets/heart.svg"> </image>


</g>

</svg>
