<?xml version="1.0" encoding="UTF-8" standalone="no"?>
<!-- Created with Inkscape (http://www.inkscape.org/) -->
<svg
   xmlns:dc="http://purl.org/dc/elements/1.1/"
   xmlns:cc="http://creativecommons.org/ns#"
   xmlns:rdf="http://www.w3.org/1999/02/22-rdf-syntax-ns#"
   xmlns:svg="http://www.w3.org/2000/svg"
   xmlns="http://www.w3.org/2000/svg"
   xmlns:sodipodi="http://sodipodi.sourceforge.net/DTD/sodipodi-0.dtd"
   xmlns:inkscape="http://www.inkscape.org/namespaces/inkscape"
   width="250"
   height="50"
   id="svg2"
   sodipodi:version="0.32"
   inkscape:version="0.46"
   version="1.0"
   sodipodi:docname="stars.svg"
   inkscape:output_extension="org.inkscape.output.svg.inkscape">
  <defs
     id="defs4">
    <inkscape:perspective
       sodipodi:type="inkscape:persp3d"
       inkscape:vp_x="0 : 526.18109 : 1"
       inkscape:vp_y="0 : 1000 : 0"
       inkscape:vp_z="744.09448 : 526.18109 : 1"
       inkscape:persp3d-origin="372.04724 : 350.78739 : 1"
       id="perspective10" />
  </defs>
  <sodipodi:namedview
     id="base"
     pagecolor="#ffffff"
     bordercolor="#666666"
     borderopacity="1.0"
     gridtolerance="10000"
     guidetolerance="10"
     objecttolerance="10"
     inkscape:pageopacity="0.0"
     inkscape:pageshadow="2"
     inkscape:zoom="1.979899"
     inkscape:cx="245.58061"
     inkscape:cy="-17.878169"
     inkscape:document-units="px"
     inkscape:current-layer="layer1"
     showgrid="false"
     inkscape:window-width="645"
     inkscape:window-height="726"
     inkscape:window-x="161"
     inkscape:window-y="25" />
  <metadata
     id="metadata7">
    <rdf:RDF>
      <cc:Work
         rdf:about="">
        <dc:format>image/svg+xml</dc:format>
        <dc:type
           rdf:resource="http://purl.org/dc/dcmitype/StillImage" />
      </cc:Work>
    </rdf:RDF>
  </metadata>
  <g
     inkscape:label="Layer 1"
     inkscape:groupmode="layer"
     id="layer1">
    <path
       sodipodi:type="star"
       style="opacity:1;fill:#ffffff;fill-opacity:1;stroke:none;stroke-width:1;stroke-miterlimit:4;stroke-dasharray:none;stroke-opacity:1"
       id="path2383"
       sodipodi:sides="5"
       sodipodi:cx="10.101525"
       sodipodi:cy="21.210651"
       sodipodi:r1="16.075396"
       sodipodi:r2="8.198452"
       sodipodi:arg1="0.7631796"
       sodipodi:arg2="1.3914981"
       inkscape:flatsided="false"
       inkscape:rounded="0.3"
       inkscape:randomized="0"
       d="M 21.718279,32.322329 C 19.519929,34.620604 14.693025,28.710489 11.56363,29.277675 C 8.4342345,29.844861 5.9885838,37.073087 3.1234663,35.692538 C 0.25834894,34.311989 4.3876075,27.895004 2.8811453,25.094043 C 1.3746831,22.293081 -6.2555164,22.200774 -5.827906,19.049272 C -5.4002957,15.89777 1.9786302,17.841971 4.1769806,15.543696 C 6.375331,13.24542 4.1052591,5.960145 7.2346543,5.392959 C 10.364049,4.825773 10.795218,12.44434 13.660335,13.824889 C 16.525453,15.205438 22.752671,10.795198 24.259133,13.596159 C 25.765595,16.397121 18.653146,19.161453 18.225536,22.312955 C 17.797925,25.464457 23.916629,30.024053 21.718279,32.322329 z"
       transform="matrix(0.2793976,0,0,0.2793976,4.8742704,6.2611147)" />
    <path
       sodipodi:type="star"
       style="opacity:1;fill:#ffffff;fill-opacity:1;stroke:none;stroke-width:1;stroke-miterlimit:4;stroke-dasharray:none;stroke-opacity:1"
       id="path2387"
       sodipodi:sides="5"
       sodipodi:cx="64.144684"
       sodipodi:cy="13.634508"
       sodipodi:r1="31.899876"
       sodipodi:r2="16.268936"
       sodipodi:arg1="1.1638255"
       sodipodi:arg2="1.7921441"
       inkscape:flatsided="false"
       inkscape:rounded="0.3"
       inkscape:randomized="0"
       d="M 76.771592,42.928932 C 70.97594,45.427057 66.730067,30.892094 60.572925,29.506522 C 54.415783,28.12095 44.352774,39.435915 40.185961,34.695886 C 36.019147,29.955857 48.530672,21.426241 47.945767,15.142286 C 47.360863,8.8583305 33.490051,2.7843562 36.71047,-2.643268 C 39.93089,-8.0708927 51.90931,1.192478 57.704962,-1.305648 C 63.500613,-3.8037737 64.990989,-18.872661 71.148131,-17.487089 C 77.305273,-16.101516 72.196819,-1.8468224 76.363633,2.8932065 C 80.530447,7.6332349 95.322362,4.3941245 95.907266,10.67808 C 96.492169,16.962035 81.356551,16.50855 78.136132,21.936175 C 74.915713,27.363799 82.567243,40.430806 76.771592,42.928932 z"
       transform="matrix(0.2793976,0,0,0.2793976,1.7696934,6.8255831)" />
    <path
       sodipodi:type="star"
       style="opacity:1;fill:#ffffff;fill-opacity:1;stroke:none;stroke-width:1;stroke-miterlimit:4;stroke-dasharray:none;stroke-opacity:1"
       id="path2389"
       sodipodi:sides="5"
       sodipodi:cx="113.64216"
       sodipodi:cy="14.139585"
       sodipodi:r1="12.876969"
       sodipodi:r2="6.5672541"
       sodipodi:arg1="0.44610555"
       sodipodi:arg2="1.0744241"
       inkscape:flatsided="false"
       inkscape:rounded="0.3"
       inkscape:randomized="0"
       d="M 125.25891,19.695424 C 124.15974,21.993699 119.00988,18.701011 116.76974,19.914276 C 114.5296,21.127541 114.47347,27.239795 111.94802,26.904624 C 109.42256,26.569452 110.9627,20.654153 109.11658,18.898568 C 107.27045,17.142984 101.44001,18.978396 100.97837,16.472973 C 100.51673,13.96755 106.61844,13.604382 107.71761,11.306107 C 108.81679,9.0078309 105.2695,4.0299241 107.50965,2.8166591 C 109.74979,1.6033941 111.98072,7.2942433 114.50617,7.629415 C 117.03163,7.9645866 120.66972,3.0526589 122.51585,4.808243 C 124.36198,6.5638272 119.63905,10.444133 120.10069,12.949556 C 120.56233,15.45498 126.35809,17.397148 125.25891,19.695424 z"
       transform="matrix(0.2793976,0,0,0.2793976,1.7696934,6.8255831)" />
    <path
       sodipodi:type="star"
       style="opacity:1;fill:#ffffff;fill-opacity:1;stroke:none;stroke-width:1;stroke-miterlimit:4;stroke-dasharray:none;stroke-opacity:1"
       id="path2391"
       sodipodi:sides="5"
       sodipodi:cx="100.51018"
       sodipodi:cy="31.312178"
       sodipodi:r1="8.6011391"
       sodipodi:r2="4.3865809"
       sodipodi:arg1="0.8685394"
       sodipodi:arg2="1.4968579"
       inkscape:flatsided="false"
       inkscape:rounded="0.3"
       inkscape:randomized="0"
       d="M 106.06602,37.878169 C 104.76699,38.977345 102.53123,35.56107 100.83422,35.686774 C 99.137206,35.812477 97.429196,39.52088 95.982397,38.625098 C 94.535598,37.729315 97.093781,34.547294 96.449824,32.972184 C 95.805867,31.397074 91.751162,30.918619 92.156016,29.265819 C 92.560871,27.61302 96.377674,29.062697 97.6767,27.963522 C 98.975725,26.864347 98.17779,22.860242 99.874802,22.734539 C 101.57181,22.608835 101.37255,26.686806 102.81935,27.582588 C 104.26614,28.478371 107.8277,26.482153 108.47166,28.057264 C 109.11561,29.632374 105.17565,30.703021 104.7708,32.35582 C 104.36595,34.00862 107.36504,36.778994 106.06602,37.878169 z"
       transform="matrix(0.2793976,0,0,0.2793976,1.7696934,6.8255831)" />
    <path
       sodipodi:type="star"
       style="opacity:1;fill:#ffffff;fill-opacity:1;stroke:none;stroke-width:1;stroke-miterlimit:4;stroke-dasharray:none;stroke-opacity:1"
       id="path2393"
       sodipodi:sides="5"
       sodipodi:cx="161.11932"
       sodipodi:cy="2.5228302"
       sodipodi:r1="38.71666"
       sodipodi:r2="19.745495"
       sodipodi:arg1="1.3068326"
       sodipodi:arg2="1.9351511"
       inkscape:flatsided="false"
       inkscape:rounded="0.3"
       inkscape:randomized="0"
       d="M 171.22085,39.898476 C 163.8264,41.896977 161.24001,23.701639 154.08309,20.97211 C 146.92616,18.242581 132.88021,30.094633 128.69452,23.679662 C 124.50882,17.264691 141.01437,9.1822237 141.3987,1.5321113 C 141.78302,-6.1180015 126.17062,-15.814003 130.97816,-21.777174 C 135.78571,-27.740345 148.57309,-14.540247 155.96755,-16.538747 C 163.362,-18.537248 167.75894,-36.381759 174.91587,-33.65223 C 182.0728,-30.922702 173.47028,-14.682125 177.65597,-8.2671537 C 181.84167,-1.8521822 200.17154,-3.184695 199.78722,4.4654178 C 199.40289,12.11553 181.29886,8.9526604 176.49131,14.915831 C 171.68377,20.879002 178.6153,37.899975 171.22085,39.898476 z"
       transform="matrix(0.2793976,0,0,0.2793976,1.7696934,6.8255831)" />
    <path
       sodipodi:type="star"
       style="opacity:1;fill:#ffffff;fill-opacity:1;stroke:none;stroke-width:1;stroke-miterlimit:4;stroke-dasharray:none;stroke-opacity:1"
       id="path2395"
       sodipodi:sides="5"
       sodipodi:cx="219.20309"
       sodipodi:cy="18.68527"
       sodipodi:r1="29.769524"
       sodipodi:r2="15.182456"
       sodipodi:arg1="1.82812"
       sodipodi:arg2="2.4564386"
       inkscape:flatsided="false"
       inkscape:rounded="0.3"
       inkscape:randomized="0"
       d="M 211.62695,47.474619 C 205.93122,45.975743 211.17391,32.853091 207.44699,28.292612 C 203.72007,23.732132 189.8162,26.256464 189.48164,20.376328 C 189.14708,14.496192 203.24754,15.427164 206.43313,10.473383 C 209.61873,5.5196037 202.92141,-6.923699 208.41037,-9.0589471 C 213.89933,-11.194195 217.3712,2.5038285 223.06693,4.0027038 C 228.76265,5.5015789 238.52736,-4.7131364 242.25428,-0.15265679 C 245.9812,4.4078233 234.02647,11.942696 234.36104,17.822832 C 234.6956,23.702968 247.42783,29.833229 244.24224,34.787009 C 241.05664,39.740789 230.19634,30.699572 224.70738,32.834821 C 219.21843,34.970069 217.32268,48.973494 211.62695,47.474619 z"
       transform="matrix(0.2793976,0,0,0.2793976,3.1627674,7.1041977)" />
    <path
       transform="matrix(0.2793976,0,0,0.2793976,73.41347,5.7038853)"
       d="M 21.718279,32.322329 C 19.519929,34.620604 14.693025,28.710489 11.56363,29.277675 C 8.4342345,29.844861 5.9885838,37.073087 3.1234663,35.692538 C 0.25834894,34.311989 4.3876075,27.895004 2.8811453,25.094043 C 1.3746831,22.293081 -6.2555164,22.200774 -5.827906,19.049272 C -5.4002957,15.89777 1.9786302,17.841971 4.1769806,15.543696 C 6.375331,13.24542 4.1052591,5.960145 7.2346543,5.392959 C 10.364049,4.825773 10.795218,12.44434 13.660335,13.824889 C 16.525453,15.205438 22.752671,10.795198 24.259133,13.596159 C 25.765595,16.397121 18.653146,19.161453 18.225536,22.312955 C 17.797925,25.464457 23.916629,30.024053 21.718279,32.322329 z"
       inkscape:randomized="0"
       inkscape:rounded="0.3"
       inkscape:flatsided="false"
       sodipodi:arg2="1.3914981"
       sodipodi:arg1="0.7631796"
       sodipodi:r2="8.198452"
       sodipodi:r1="16.075396"
       sodipodi:cy="21.210651"
       sodipodi:cx="10.101525"
       sodipodi:sides="5"
       id="path2385"
       style="opacity:1;fill:#ffffff;fill-opacity:1;stroke:none;stroke-width:1;stroke-miterlimit:4;stroke-dasharray:none;stroke-opacity:1"
       sodipodi:type="star" />
    <path
       transform="matrix(0.2793976,0,0,0.2793976,70.30889,6.2683537)"
       d="M 76.771592,42.928932 C 70.97594,45.427057 66.730067,30.892094 60.572925,29.506522 C 54.415783,28.12095 44.352774,39.435915 40.185961,34.695886 C 36.019147,29.955857 48.530672,21.426241 47.945767,15.142286 C 47.360863,8.8583305 33.490051,2.7843562 36.71047,-2.643268 C 39.93089,-8.0708927 51.90931,1.192478 57.704962,-1.305648 C 63.500613,-3.8037737 64.990989,-18.872661 71.148131,-17.487089 C 77.305273,-16.101516 72.196819,-1.8468224 76.363633,2.8932065 C 80.530447,7.6332349 95.322362,4.3941245 95.907266,10.67808 C 96.492169,16.962035 81.356551,16.50855 78.136132,21.936175 C 74.915713,27.363799 82.567243,40.430806 76.771592,42.928932 z"
       inkscape:randomized="0"
       inkscape:rounded="0.3"
       inkscape:flatsided="false"
       sodipodi:arg2="1.7921441"
       sodipodi:arg1="1.1638255"
       sodipodi:r2="16.268936"
       sodipodi:r1="31.899876"
       sodipodi:cy="13.634508"
       sodipodi:cx="64.144684"
       sodipodi:sides="5"
       id="path2388"
       style="opacity:1;fill:#ffffff;fill-opacity:1;stroke:none;stroke-width:1;stroke-miterlimit:4;stroke-dasharray:none;stroke-opacity:1"
       sodipodi:type="star" />
    <path
       transform="matrix(0.2793976,0,0,0.2793976,70.30889,6.2683537)"
       d="M 125.25891,19.695424 C 124.15974,21.993699 119.00988,18.701011 116.76974,19.914276 C 114.5296,21.127541 114.47347,27.239795 111.94802,26.904624 C 109.42256,26.569452 110.9627,20.654153 109.11658,18.898568 C 107.27045,17.142984 101.44001,18.978396 100.97837,16.472973 C 100.51673,13.96755 106.61844,13.604382 107.71761,11.306107 C 108.81679,9.0078309 105.2695,4.0299241 107.50965,2.8166591 C 109.74979,1.6033941 111.98072,7.2942433 114.50617,7.629415 C 117.03163,7.9645866 120.66972,3.0526589 122.51585,4.808243 C 124.36198,6.5638272 119.63905,10.444133 120.10069,12.949556 C 120.56233,15.45498 126.35809,17.397148 125.25891,19.695424 z"
       inkscape:randomized="0"
       inkscape:rounded="0.3"
       inkscape:flatsided="false"
       sodipodi:arg2="1.0744241"
       sodipodi:arg1="0.44610555"
       sodipodi:r2="6.5672541"
       sodipodi:r1="12.876969"
       sodipodi:cy="14.139585"
       sodipodi:cx="113.64216"
       sodipodi:sides="5"
       id="path2390"
       style="opacity:1;fill:#ffffff;fill-opacity:1;stroke:none;stroke-width:1;stroke-miterlimit:4;stroke-dasharray:none;stroke-opacity:1"
       sodipodi:type="star" />
    <path
       transform="matrix(0.2793976,0,0,0.2793976,70.30889,6.2683537)"
       d="M 106.06602,37.878169 C 104.76699,38.977345 102.53123,35.56107 100.83422,35.686774 C 99.137206,35.812477 97.429196,39.52088 95.982397,38.625098 C 94.535598,37.729315 97.093781,34.547294 96.449824,32.972184 C 95.805867,31.397074 91.751162,30.918619 92.156016,29.265819 C 92.560871,27.61302 96.377674,29.062697 97.6767,27.963522 C 98.975725,26.864347 98.17779,22.860242 99.874802,22.734539 C 101.57181,22.608835 101.37255,26.686806 102.81935,27.582588 C 104.26614,28.478371 107.8277,26.482153 108.47166,28.057264 C 109.11561,29.632374 105.17565,30.703021 104.7708,32.35582 C 104.36595,34.00862 107.36504,36.778994 106.06602,37.878169 z"
       inkscape:randomized="0"
       inkscape:rounded="0.3"
       inkscape:flatsided="false"
       sodipodi:arg2="1.4968579"
       sodipodi:arg1="0.8685394"
       sodipodi:r2="4.3865809"
       sodipodi:r1="8.6011391"
       sodipodi:cy="31.312178"
       sodipodi:cx="100.51018"
       sodipodi:sides="5"
       id="path2392"
       style="opacity:1;fill:#ffffff;fill-opacity:1;stroke:none;stroke-width:1;stroke-miterlimit:4;stroke-dasharray:none;stroke-opacity:1"
       sodipodi:type="star" />
    <path
       transform="matrix(0.2793976,0,0,0.2793976,70.30889,6.2683537)"
       d="M 171.22085,39.898476 C 163.8264,41.896977 161.24001,23.701639 154.08309,20.97211 C 146.92616,18.242581 132.88021,30.094633 128.69452,23.679662 C 124.50882,17.264691 141.01437,9.1822237 141.3987,1.5321113 C 141.78302,-6.1180015 126.17062,-15.814003 130.97816,-21.777174 C 135.78571,-27.740345 148.57309,-14.540247 155.96755,-16.538747 C 163.362,-18.537248 167.75894,-36.381759 174.91587,-33.65223 C 182.0728,-30.922702 173.47028,-14.682125 177.65597,-8.2671537 C 181.84167,-1.8521822 200.17154,-3.184695 199.78722,4.4654178 C 199.40289,12.11553 181.29886,8.9526604 176.49131,14.915831 C 171.68377,20.879002 178.6153,37.899975 171.22085,39.898476 z"
       inkscape:randomized="0"
       inkscape:rounded="0.3"
       inkscape:flatsided="false"
       sodipodi:arg2="1.9351511"
       sodipodi:arg1="1.3068326"
       sodipodi:r2="19.745495"
       sodipodi:r1="38.71666"
       sodipodi:cy="2.5228302"
       sodipodi:cx="161.11932"
       sodipodi:sides="5"
       id="path2394"
       style="opacity:1;fill:#ffffff;fill-opacity:1;stroke:none;stroke-width:1;stroke-miterlimit:4;stroke-dasharray:none;stroke-opacity:1"
       sodipodi:type="star" />
    <path
       transform="matrix(0.2793976,0,0,0.2793976,70.30889,6.2683537)"
       d="M 211.62695,47.474619 C 205.93122,45.975743 211.17391,32.853091 207.44699,28.292612 C 203.72007,23.732132 189.8162,26.256464 189.48164,20.376328 C 189.14708,14.496192 203.24754,15.427164 206.43313,10.473383 C 209.61873,5.5196037 202.92141,-6.923699 208.41037,-9.0589471 C 213.89933,-11.194195 217.3712,2.5038285 223.06693,4.0027038 C 228.76265,5.5015789 238.52736,-4.7131364 242.25428,-0.15265679 C 245.9812,4.4078233 234.02647,11.942696 234.36104,17.822832 C 234.6956,23.702968 247.42783,29.833229 244.24224,34.787009 C 241.05664,39.740789 230.19634,30.699572 224.70738,32.834821 C 219.21843,34.970069 217.32268,48.973494 211.62695,47.474619 z"
       inkscape:randomized="0"
       inkscape:rounded="0.3"
       inkscape:flatsided="false"
       sodipodi:arg2="2.4564386"
       sodipodi:arg1="1.82812"
       sodipodi:r2="15.182456"
       sodipodi:r1="29.769524"
       sodipodi:cy="18.68527"
       sodipodi:cx="219.20309"
       sodipodi:sides="5"
       id="path2396"
       style="opacity:1;fill:#ffffff;fill-opacity:1;stroke:none;stroke-width:1;stroke-miterlimit:4;stroke-dasharray:none;stroke-opacity:1"
       sodipodi:type="star" />
    <path
       transform="matrix(0.2793976,0,0,0.2793976,141.74994,4.7458859)"
       d="M 21.718279,32.322329 C 19.519929,34.620604 14.693025,28.710489 11.56363,29.277675 C 8.4342345,29.844861 5.9885838,37.073087 3.1234663,35.692538 C 0.25834894,34.311989 4.3876075,27.895004 2.8811453,25.094043 C 1.3746831,22.293081 -6.2555164,22.200774 -5.827906,19.049272 C -5.4002957,15.89777 1.9786302,17.841971 4.1769806,15.543696 C 6.375331,13.24542 4.1052591,5.960145 7.2346543,5.392959 C 10.364049,4.825773 10.795218,12.44434 13.660335,13.824889 C 16.525453,15.205438 22.752671,10.795198 24.259133,13.596159 C 25.765595,16.397121 18.653146,19.161453 18.225536,22.312955 C 17.797925,25.464457 23.916629,30.024053 21.718279,32.322329 z"
       inkscape:randomized="0"
       inkscape:rounded="0.3"
       inkscape:flatsided="false"
       sodipodi:arg2="1.3914981"
       sodipodi:arg1="0.7631796"
       sodipodi:r2="8.198452"
       sodipodi:r1="16.075396"
       sodipodi:cy="21.210651"
       sodipodi:cx="10.101525"
       sodipodi:sides="5"
       id="path2397"
       style="opacity:1;fill:#ffffff;fill-opacity:1;stroke:none;stroke-width:1;stroke-miterlimit:4;stroke-dasharray:none;stroke-opacity:1"
       sodipodi:type="star" />
    <path
       transform="matrix(0.2793976,0,0,0.2793976,138.64536,5.3103543)"
       d="M 76.771592,42.928932 C 70.97594,45.427057 66.730067,30.892094 60.572925,29.506522 C 54.415783,28.12095 44.352774,39.435915 40.185961,34.695886 C 36.019147,29.955857 48.530672,21.426241 47.945767,15.142286 C 47.360863,8.8583305 33.490051,2.7843562 36.71047,-2.643268 C 39.93089,-8.0708927 51.90931,1.192478 57.704962,-1.305648 C 63.500613,-3.8037737 64.990989,-18.872661 71.148131,-17.487089 C 77.305273,-16.101516 72.196819,-1.8468224 76.363633,2.8932065 C 80.530447,7.6332349 95.322362,4.3941245 95.907266,10.67808 C 96.492169,16.962035 81.356551,16.50855 78.136132,21.936175 C 74.915713,27.363799 82.567243,40.430806 76.771592,42.928932 z"
       inkscape:randomized="0"
       inkscape:rounded="0.3"
       inkscape:flatsided="false"
       sodipodi:arg2="1.7921441"
       sodipodi:arg1="1.1638255"
       sodipodi:r2="16.268936"
       sodipodi:r1="31.899876"
       sodipodi:cy="13.634508"
       sodipodi:cx="64.144684"
       sodipodi:sides="5"
       id="path2399"
       style="opacity:1;fill:#ffffff;fill-opacity:1;stroke:none;stroke-width:1;stroke-miterlimit:4;stroke-dasharray:none;stroke-opacity:1"
       sodipodi:type="star" />
    <path
       transform="matrix(0.2793976,0,0,0.2793976,138.64536,5.3103543)"
       d="M 125.25891,19.695424 C 124.15974,21.993699 119.00988,18.701011 116.76974,19.914276 C 114.5296,21.127541 114.47347,27.239795 111.94802,26.904624 C 109.42256,26.569452 110.9627,20.654153 109.11658,18.898568 C 107.27045,17.142984 101.44001,18.978396 100.97837,16.472973 C 100.51673,13.96755 106.61844,13.604382 107.71761,11.306107 C 108.81679,9.0078309 105.2695,4.0299241 107.50965,2.8166591 C 109.74979,1.6033941 111.98072,7.2942433 114.50617,7.629415 C 117.03163,7.9645866 120.66972,3.0526589 122.51585,4.808243 C 124.36198,6.5638272 119.63905,10.444133 120.10069,12.949556 C 120.56233,15.45498 126.35809,17.397148 125.25891,19.695424 z"
       inkscape:randomized="0"
       inkscape:rounded="0.3"
       inkscape:flatsided="false"
       sodipodi:arg2="1.0744241"
       sodipodi:arg1="0.44610555"
       sodipodi:r2="6.5672541"
       sodipodi:r1="12.876969"
       sodipodi:cy="14.139585"
       sodipodi:cx="113.64216"
       sodipodi:sides="5"
       id="path2401"
       style="opacity:1;fill:#ffffff;fill-opacity:1;stroke:none;stroke-width:1;stroke-miterlimit:4;stroke-dasharray:none;stroke-opacity:1"
       sodipodi:type="star" />
    <path
       transform="matrix(0.2793976,0,0,0.2793976,138.64536,5.3103543)"
       d="M 106.06602,37.878169 C 104.76699,38.977345 102.53123,35.56107 100.83422,35.686774 C 99.137206,35.812477 97.429196,39.52088 95.982397,38.625098 C 94.535598,37.729315 97.093781,34.547294 96.449824,32.972184 C 95.805867,31.397074 91.751162,30.918619 92.156016,29.265819 C 92.560871,27.61302 96.377674,29.062697 97.6767,27.963522 C 98.975725,26.864347 98.17779,22.860242 99.874802,22.734539 C 101.57181,22.608835 101.37255,26.686806 102.81935,27.582588 C 104.26614,28.478371 107.8277,26.482153 108.47166,28.057264 C 109.11561,29.632374 105.17565,30.703021 104.7708,32.35582 C 104.36595,34.00862 107.36504,36.778994 106.06602,37.878169 z"
       inkscape:randomized="0"
       inkscape:rounded="0.3"
       inkscape:flatsided="false"
       sodipodi:arg2="1.4968579"
       sodipodi:arg1="0.8685394"
       sodipodi:r2="4.3865809"
       sodipodi:r1="8.6011391"
       sodipodi:cy="31.312178"
       sodipodi:cx="100.51018"
       sodipodi:sides="5"
       id="path2403"
       style="opacity:1;fill:#ffffff;fill-opacity:1;stroke:none;stroke-width:1;stroke-miterlimit:4;stroke-dasharray:none;stroke-opacity:1"
       sodipodi:type="star" />
    <path
       transform="matrix(0.2793976,0,0,0.2793976,138.64536,5.3103543)"
       d="M 171.22085,39.898476 C 163.8264,41.896977 161.24001,23.701639 154.08309,20.97211 C 146.92616,18.242581 132.88021,30.094633 128.69452,23.679662 C 124.50882,17.264691 141.01437,9.1822237 141.3987,1.5321113 C 141.78302,-6.1180015 126.17062,-15.814003 130.97816,-21.777174 C 135.78571,-27.740345 148.57309,-14.540247 155.96755,-16.538747 C 163.362,-18.537248 167.75894,-36.381759 174.91587,-33.65223 C 182.0728,-30.922702 173.47028,-14.682125 177.65597,-8.2671537 C 181.84167,-1.8521822 200.17154,-3.184695 199.78722,4.4654178 C 199.40289,12.11553 181.29886,8.9526604 176.49131,14.915831 C 171.68377,20.879002 178.6153,37.899975 171.22085,39.898476 z"
       inkscape:randomized="0"
       inkscape:rounded="0.3"
       inkscape:flatsided="false"
       sodipodi:arg2="1.9351511"
       sodipodi:arg1="1.3068326"
       sodipodi:r2="19.745495"
       sodipodi:r1="38.71666"
       sodipodi:cy="2.5228302"
       sodipodi:cx="161.11932"
       sodipodi:sides="5"
       id="path2405"
       style="opacity:1;fill:#ffffff;fill-opacity:1;stroke:none;stroke-width:1;stroke-miterlimit:4;stroke-dasharray:none;stroke-opacity:1"
       sodipodi:type="star" />
    <path
       transform="matrix(0.2793976,0,0,0.2793976,140.03844,5.5889689)"
       d="M 211.62695,47.474619 C 205.93122,45.975743 211.17391,32.853091 207.44699,28.292612 C 203.72007,23.732132 189.8162,26.256464 189.48164,20.376328 C 189.14708,14.496192 203.24754,15.427164 206.43313,10.473383 C 209.61873,5.5196037 202.92141,-6.923699 208.41037,-9.0589471 C 213.89933,-11.194195 217.3712,2.5038285 223.06693,4.0027038 C 228.76265,5.5015789 238.52736,-4.7131364 242.25428,-0.15265679 C 245.9812,4.4078233 234.02647,11.942696 234.36104,17.822832 C 234.6956,23.702968 247.42783,29.833229 244.24224,34.787009 C 241.05664,39.740789 230.19634,30.699572 224.70738,32.834821 C 219.21843,34.970069 217.32268,48.973494 211.62695,47.474619 z"
       inkscape:randomized="0"
       inkscape:rounded="0.3"
       inkscape:flatsided="false"
       sodipodi:arg2="2.4564386"
       sodipodi:arg1="1.82812"
       sodipodi:r2="15.182456"
       sodipodi:r1="29.769524"
       sodipodi:cy="18.68527"
       sodipodi:cx="219.20309"
       sodipodi:sides="5"
       id="path2407"
       style="opacity:1;fill:#ffffff;fill-opacity:1;stroke:none;stroke-width:1;stroke-miterlimit:4;stroke-dasharray:none;stroke-opacity:1"
       sodipodi:type="star" />
    <path
       sodipodi:type="star"
       style="opacity:1;fill:#ffffff;fill-opacity:1;stroke:none;stroke-width:1;stroke-miterlimit:4;stroke-dasharray:none;stroke-opacity:1"
       id="path2409"
       sodipodi:sides="5"
       sodipodi:cx="10.101525"
       sodipodi:cy="21.210651"
       sodipodi:r1="16.075396"
       sodipodi:r2="8.198452"
       sodipodi:arg1="0.7631796"
       sodipodi:arg2="1.3914981"
       inkscape:flatsided="false"
       inkscape:rounded="0.3"
       inkscape:randomized="0"
       d="M 21.718279,32.322329 C 19.519929,34.620604 14.693025,28.710489 11.56363,29.277675 C 8.4342345,29.844861 5.9885838,37.073087 3.1234663,35.692538 C 0.25834894,34.311989 4.3876075,27.895004 2.8811453,25.094043 C 1.3746831,22.293081 -6.2555164,22.200774 -5.827906,19.049272 C -5.4002957,15.89777 1.9786302,17.841971 4.1769806,15.543696 C 6.375331,13.24542 4.1052591,5.960145 7.2346543,5.392959 C 10.364049,4.825773 10.795218,12.44434 13.660335,13.824889 C 16.525453,15.205438 22.752671,10.795198 24.259133,13.596159 C 25.765595,16.397121 18.653146,19.161453 18.225536,22.312955 C 17.797925,25.464457 23.916629,30.024053 21.718279,32.322329 z"
       transform="matrix(0.2793976,0,0,0.2793976,210.28914,4.1886565)" />
    <path
       sodipodi:type="star"
       style="opacity:1;fill:#ffffff;fill-opacity:1;stroke:none;stroke-width:1;stroke-miterlimit:4;stroke-dasharray:none;stroke-opacity:1"
       id="path2411"
       sodipodi:sides="5"
       sodipodi:cx="64.144684"
       sodipodi:cy="13.634508"
       sodipodi:r1="31.899876"
       sodipodi:r2="16.268936"
       sodipodi:arg1="1.1638255"
       sodipodi:arg2="1.7921441"
       inkscape:flatsided="false"
       inkscape:rounded="0.3"
       inkscape:randomized="0"
       d="M 76.771592,42.928932 C 70.97594,45.427057 66.730067,30.892094 60.572925,29.506522 C 54.415783,28.12095 44.352774,39.435915 40.185961,34.695886 C 36.019147,29.955857 48.530672,21.426241 47.945767,15.142286 C 47.360863,8.8583305 33.490051,2.7843562 36.71047,-2.643268 C 39.93089,-8.0708927 51.90931,1.192478 57.704962,-1.305648 C 63.500613,-3.8037737 64.990989,-18.872661 71.148131,-17.487089 C 77.305273,-16.101516 72.196819,-1.8468224 76.363633,2.8932065 C 80.530447,7.6332349 95.322362,4.3941245 95.907266,10.67808 C 96.492169,16.962035 81.356551,16.50855 78.136132,21.936175 C 74.915713,27.363799 82.567243,40.430806 76.771592,42.928932 z"
       transform="matrix(0.2793976,0,0,0.2793976,207.18456,4.7531249)" />
    <path
       sodipodi:type="star"
       style="opacity:1;fill:#ffffff;fill-opacity:1;stroke:none;stroke-width:1;stroke-miterlimit:4;stroke-dasharray:none;stroke-opacity:1"
       id="path2413"
       sodipodi:sides="5"
       sodipodi:cx="113.64216"
       sodipodi:cy="14.139585"
       sodipodi:r1="12.876969"
       sodipodi:r2="6.5672541"
       sodipodi:arg1="0.44610555"
       sodipodi:arg2="1.0744241"
       inkscape:flatsided="false"
       inkscape:rounded="0.3"
       inkscape:randomized="0"
       d="M 125.25891,19.695424 C 124.15974,21.993699 119.00988,18.701011 116.76974,19.914276 C 114.5296,21.127541 114.47347,27.239795 111.94802,26.904624 C 109.42256,26.569452 110.9627,20.654153 109.11658,18.898568 C 107.27045,17.142984 101.44001,18.978396 100.97837,16.472973 C 100.51673,13.96755 106.61844,13.604382 107.71761,11.306107 C 108.81679,9.0078309 105.2695,4.0299241 107.50965,2.8166591 C 109.74979,1.6033941 111.98072,7.2942433 114.50617,7.629415 C 117.03163,7.9645866 120.66972,3.0526589 122.51585,4.808243 C 124.36198,6.5638272 119.63905,10.444133 120.10069,12.949556 C 120.56233,15.45498 126.35809,17.397148 125.25891,19.695424 z"
       transform="matrix(0.2793976,0,0,0.2793976,207.18456,4.7531249)" />
    <path
       sodipodi:type="star"
       style="opacity:1;fill:#ffffff;fill-opacity:1;stroke:none;stroke-width:1;stroke-miterlimit:4;stroke-dasharray:none;stroke-opacity:1"
       id="path2415"
       sodipodi:sides="5"
       sodipodi:cx="100.51018"
       sodipodi:cy="31.312178"
       sodipodi:r1="8.6011391"
       sodipodi:r2="4.3865809"
       sodipodi:arg1="0.8685394"
       sodipodi:arg2="1.4968579"
       inkscape:flatsided="false"
       inkscape:rounded="0.3"
       inkscape:randomized="0"
       d="M 106.06602,37.878169 C 104.76699,38.977345 102.53123,35.56107 100.83422,35.686774 C 99.137206,35.812477 97.429196,39.52088 95.982397,38.625098 C 94.535598,37.729315 97.093781,34.547294 96.449824,32.972184 C 95.805867,31.397074 91.751162,30.918619 92.156016,29.265819 C 92.560871,27.61302 96.377674,29.062697 97.6767,27.963522 C 98.975725,26.864347 98.17779,22.860242 99.874802,22.734539 C 101.57181,22.608835 101.37255,26.686806 102.81935,27.582588 C 104.26614,28.478371 107.8277,26.482153 108.47166,28.057264 C 109.11561,29.632374 105.17565,30.703021 104.7708,32.35582 C 104.36595,34.00862 107.36504,36.778994 106.06602,37.878169 z"
       transform="matrix(0.2793976,0,0,0.2793976,207.18456,4.7531249)" />
  </g>
</svg>
