<?xml version="1.0" encoding="UTF-8" standalone="no"?>
<svg
   xmlns:dc="http://purl.org/dc/elements/1.1/"
   xmlns:cc="http://web.resource.org/cc/"
   xmlns:rdf="http://www.w3.org/1999/02/22-rdf-syntax-ns#"
   xmlns:svg="http://www.w3.org/2000/svg"
   xmlns="http://www.w3.org/2000/svg"
   xmlns:xlink="http://www.w3.org/1999/xlink"
   xmlns:sodipodi="http://sodipodi.sourceforge.net/DTD/sodipodi-0.dtd"
   xmlns:inkscape="http://www.inkscape.org/namespaces/inkscape"
   contentScriptType="text/ecmascript"
   width="400"
   zoomAndPan="magnify"
   contentStyleType="text/css"
   height="400"
   viewBox="0 0 400.0 400.0"
   preserveAspectRatio="xMidYMid meet"
   version="1.0"
   id="svg2079"
   sodipodi:version="0.32"
   inkscape:version="0.44.1"
   sodipodi:docname="icone-main.svg"
   sodipodi:docbase="C:\cygwin\home\ivaldo\taboca-firefox\src\theme\svg\biblioteca\Preferences">
  <metadata
     id="metadata2119">
    <rdf:RDF>
      <cc:Work
         rdf:about="">
        <dc:format>image/svg+xml</dc:format>
        <dc:type
           rdf:resource="http://purl.org/dc/dcmitype/StillImage" />
      </cc:Work>
    </rdf:RDF>
  </metadata>
  <sodipodi:namedview
     inkscape:window-height="760"
     inkscape:window-width="997"
     inkscape:pageshadow="2"
     inkscape:pageopacity="0.0"
     guidetolerance="10.0"
     gridtolerance="10.0"
     objecttolerance="10.0"
     borderopacity="1.0"
     bordercolor="#666666"
     pagecolor="#ffffff"
     id="base"
     inkscape:zoom="0.94499999"
     inkscape:cx="256.40468"
     inkscape:cy="245.58574"
     inkscape:window-x="213"
     inkscape:window-y="3"
     inkscape:current-layer="a2007"
     showgrid="false" />
  <defs
     id="defs2081">
    <filter
       x="0"
       y="0"
       width="450"
       filterUnits="userSpaceOnUse"
       xlink:type="simple"
       xlink:actuate="onLoad"
       id="MyFilter"
       height="400"
       xlink:show="other">
      <feGaussianBlur
         stdDeviation="14"
         in="SourceAlpha"
         result="blur"
         id="feGaussianBlur2084" />
      <feOffset
         dx="14"
         dy="14"
         in="blur"
         result="offsetBlur"
         id="feOffset2086" />
      <feSpecularLighting
         specularConstant=".2"
         specularExponent="20"
         result="specOut"
         in="blur"
         surfaceScale="5"
         lighting-color="#bbbbbb"
         id="feSpecularLighting2088">
        <fePointLight
           x="-5000"
           y="-10000"
           z="20000"
           id="fePointLight2090" />
      </feSpecularLighting>
      <feComposite
         in2="SourceAlpha"
         operator="in"
         in="specOut"
         result="specOut"
         id="feComposite2092" />
      <feComposite
         result="litPaint"
         in="SourceGraphic"
         k1="0"
         k2="1"
         k3="1"
         k4="0"
         in2="specOut"
         operator="arithmetic"
         id="feComposite2094" />
      <feMerge
         id="feMerge2096">
        <feMergeNode
           in="offsetBlur"
           id="feMergeNode2098" />
        <feMergeNode
           in="litPaint"
           id="feMergeNode2100" />
      </feMerge>
    </filter>
    <radialGradient
       gradientTransform=""
       id="radial0"
       gradientUnits="objectBoundingBox"
       spreadMethod="repeat"
       xlink:show="other"
       xlink:type="simple"
       r="50%"
       cx="50%"
       fx="50%"
       cy="50%"
       fy="50%"
       xlink:actuate="onLoad">
      <stop
         style="stop-color:#ff6600;stop-opacity:1;"
         offset="33%"
         id="stop2103" />
    </radialGradient>
    <radialGradient
       gradientTransform=""
       id="radial1"
       gradientUnits="objectBoundingBox"
       spreadMethod="pad"
       xlink:show="other"
       xlink:type="simple"
       r="111%"
       cx="7%"
       fx="111%"
       cy="97%"
       fy="111%"
       xlink:actuate="onLoad">
      <stop
         style="stop-color:#ffffff;stop-opacity:1;"
         offset="0%"
         id="stop2106" />
      <stop
         style="stop-color:#cccccc;stop-opacity:1;"
         offset="61%"
         id="stop2108" />
    </radialGradient>
  </defs>
  <path
     sodipodi:type="star"
     style="fill:black;fill-opacity:1;stroke:none;stroke-linejoin:miter"
     id="path5702"
     sodipodi:sides="24"
     sodipodi:cx="198.9418"
     sodipodi:cy="200"
     sodipodi:r1="167.2879"
     sodipodi:r2="80.083969"
     sodipodi:arg1="2.4874338"
     sodipodi:arg2="2.6183335"
     inkscape:flatsided="false"
     inkscape:rounded="0.33"
     inkscape:randomized="0"
     d="M 66.188808,301.79334 C 48.416095,278.6152 144.16877,265.31809 129.57346,240.01843 C 114.97815,214.71877 55.534378,290.9541 44.366201,263.96582 C 33.198023,236.97753 129.12955,248.91612 121.57959,220.70098 C 114.02964,192.48585 36.880214,250.73834 33.077665,221.77912 C 29.275117,192.8199 118.84792,229.1806 118.85784,199.9728 C 118.86776,170.765 29.270279,207.06485 33.092497,178.10822 C 36.914714,149.15159 114.02456,207.45648 121.59367,179.24647 C 129.16279,151.03647 33.223178,162.9099 44.409684,135.92921 C 55.59619,108.94851 114.98816,185.2242 129.60065,159.93446 C 144.21315,134.64472 48.469527,121.28258 66.25798,98.11651 C 84.046433,74.950441 121.67307,163.99887 142.33312,143.35285 C 162.99317,122.70683 73.970314,85.019719 97.148459,67.247005 C 120.32661,49.474292 133.62372,145.22696 158.92338,130.63165 C 184.22303,116.03634 107.9877,56.592575 134.97599,45.424398 C 161.96427,34.25622 150.02568,130.18774 178.24082,122.63779 C 206.45596,115.08784 148.20346,37.938411 177.16268,34.135862 C 206.1219,30.333314 169.7612,119.90612 198.969,119.91604 C 228.1768,119.92595 191.87695,30.328476 220.83358,34.150694 C 249.79021,37.972912 191.48533,115.08275 219.69533,122.65187 C 247.90533,130.22099 236.0319,34.281375 263.0126,45.467881 C 289.99329,56.654387 213.7176,116.04636 239.00734,130.65885 C 264.29708,145.27134 277.65922,49.527724 300.82529,67.316177 C 323.99136,85.10463 234.94293,122.73127 255.58895,143.39132 C 276.23497,164.05137 313.92208,75.028511 331.6948,98.206656 C 349.46751,121.3848 253.71484,134.68191 268.31015,159.98157 C 282.90546,185.28123 342.34923,109.0459 353.51741,136.03418 C 364.68558,163.02247 268.75406,151.08388 276.30401,179.29902 C 283.85397,207.51415 361.00339,149.26166 364.80594,178.22088 C 368.60849,207.1801 279.03569,170.8194 279.02577,200.0272 C 279.01585,229.235 368.61333,192.93515 364.79111,221.89178 C 360.96889,250.84841 283.85905,192.54352 276.28993,220.75353 C 268.72082,248.96353 364.66043,237.0901 353.47392,264.07079 C 342.28742,291.05149 282.89544,214.7758 268.28295,240.06554 C 253.67046,265.35528 349.41408,278.71742 331.62563,301.88349 C 313.83717,325.04956 276.21053,236.00113 255.55049,256.64715 C 234.89044,277.29317 323.91329,314.98028 300.73515,332.75299 C 277.557,350.52571 264.25989,254.77304 238.96023,269.36835 C 213.66057,283.96366 289.89591,343.40742 262.90762,354.5756 C 235.91933,365.74378 247.85792,269.81226 219.64279,277.36221 C 191.42765,284.91216 249.68015,362.06159 220.72093,365.86414 C 191.76171,369.66669 228.12241,280.09388 198.9146,280.08396 C 169.7068,280.07405 206.00665,369.67152 177.05002,365.84931 C 148.09339,362.02709 206.39828,284.91725 178.18828,277.34813 C 149.97827,269.77901 161.8517,365.71863 134.87101,354.53212 C 107.89031,343.34561 184.16601,283.95364 158.87627,269.34115 C 133.58653,254.72866 120.22438,350.47228 97.058313,332.68382 C 73.892244,314.89537 162.94068,277.26873 142.29466,256.60868 C 121.64864,235.94863 83.961522,324.97149 66.188808,301.79334 z "
     transform="matrix(1.16594,-2.248216e-2,2.285755e-2,1.185408,-38.81451,-35.8747)" />
  <a
     id="a2007"
     transform="matrix(1.01253,0,0,1.01253,405.3547,25.85516)">
    <path
       id="path2029"
       style="fill:white;fill-opacity:1;stroke:none;stroke-linejoin:miter"
       d="M -85.981215,174.53462 C -85.981215,240.24046 -139.30767,293.56692 -205.01349,293.56692 C -270.71933,293.56692 -324.04576,240.24046 -324.04576,174.53462 C -324.04576,108.82881 -270.71933,55.502346 -205.01349,55.502346 C -139.30767,55.502346 -85.981215,108.82881 -85.981215,174.53462 z M -311.83736,121.42795 L -201.61281,-128.69439 L -100.3422,118.01505 L -311.83736,121.42795 z " />
    <path
       id="path2036"
       style="fill:black;fill-opacity:1;stroke:none;stroke-linejoin:miter"
       d="M -126.59571,177.75189 C -126.59571,221.66308 -162.23378,257.30114 -206.14496,257.30114 C -250.05616,257.30114 -285.6942,221.66308 -285.6942,177.75189 C -285.6942,133.84071 -250.05616,98.202661 -206.14496,98.202661 C -162.23378,98.202661 -126.59571,133.84071 -126.59571,177.75189 z M -277.53532,142.26072 L -203.87229,-24.895978 L -136.19316,139.97987 L -277.53532,142.26072 z " />
  </a>
</svg>
