<?xml version="1.0" encoding="UTF-8" standalone="no"?>
<!-- Created with Inkscape (http://www.inkscape.org/) -->
<svg
   xmlns:dc="http://purl.org/dc/elements/1.1/"
   xmlns:cc="http://creativecommons.org/ns#"
   xmlns:rdf="http://www.w3.org/1999/02/22-rdf-syntax-ns#"
   xmlns:svg="http://www.w3.org/2000/svg"
   xmlns="http://www.w3.org/2000/svg"
   xmlns:sodipodi="http://sodipodi.sourceforge.net/DTD/sodipodi-0.dtd"
   xmlns:inkscape="http://www.inkscape.org/namespaces/inkscape"
   width="520"
   height="300"
   id="svg2"
   sodipodi:version="0.32"
   inkscape:version="0.46"
   version="1.0"
   sodipodi:docname="balls.svg"
   inkscape:output_extension="org.inkscape.output.svg.inkscape">
  <defs
     id="defs4">
    <inkscape:perspective
       sodipodi:type="inkscape:persp3d"
       inkscape:vp_x="0 : 526.18109 : 1"
       inkscape:vp_y="0 : 1000 : 0"
       inkscape:vp_z="744.09448 : 526.18109 : 1"
       inkscape:persp3d-origin="372.04724 : 350.78739 : 1"
       id="perspective10" />
  </defs>
  <sodipodi:namedview
     id="base"
     pagecolor="#ffffff"
     bordercolor="#666666"
     borderopacity="1.0"
     gridtolerance="10000"
     guidetolerance="10"
     objecttolerance="10"
     inkscape:pageopacity="0.0"
     inkscape:pageshadow="2"
     inkscape:zoom="0.49497475"
     inkscape:cx="276.97867"
     inkscape:cy="150.80907"
     inkscape:document-units="px"
     inkscape:current-layer="layer1"
     showgrid="false"
     inkscape:window-width="1203"
     inkscape:window-height="726"
     inkscape:window-x="0"
     inkscape:window-y="25" />
  <metadata
     id="metadata7">
    <rdf:RDF>
      <cc:Work
         rdf:about="">
        <dc:format>image/svg+xml</dc:format>
        <dc:type
           rdf:resource="http://purl.org/dc/dcmitype/StillImage" />
      </cc:Work>
    </rdf:RDF>
  </metadata>
  <g
     inkscape:label="Layer 1"
     inkscape:groupmode="layer"
     id="layer1">
    <path
       sodipodi:type="arc"
       style="opacity:1;fill:#ffffff;fill-opacity:1;stroke:none;stroke-width:2;stroke-miterlimit:4;stroke-dasharray:none;stroke-opacity:1"
       id="path2396"
       sodipodi:cx="103.03556"
       sodipodi:cy="71.705528"
       sodipodi:rx="28.284271"
       sodipodi:ry="28.284271"
       d="M 131.31983,71.705528 A 28.284271,28.284271 0 1 1 74.751289,71.705528 A 28.284271,28.284271 0 1 1 131.31983,71.705528 z" />
    <path
       d="M 131.31983,71.705528 A 28.284271,28.284271 0 1 1 74.751289,71.705528 A 28.284271,28.284271 0 1 1 131.31983,71.705528 z"
       sodipodi:ry="28.284271"
       sodipodi:rx="28.284271"
       sodipodi:cy="71.705528"
       sodipodi:cx="103.03556"
       id="path3168"
       style="opacity:1;fill:#ffffff;fill-opacity:1;stroke:none;stroke-width:2;stroke-miterlimit:4;stroke-dasharray:none;stroke-opacity:1"
       sodipodi:type="arc"
       transform="matrix(2.8571428,0,0,2.8571428,-72.153757,-183.67503)" />
    <path
       transform="matrix(1.7857142,0,0,1.7857142,-115.3017,54.776728)"
       sodipodi:type="arc"
       style="opacity:1;fill:#ffffff;fill-opacity:1;stroke:none;stroke-width:2;stroke-miterlimit:4;stroke-dasharray:none;stroke-opacity:1"
       id="path3170"
       sodipodi:cx="103.03556"
       sodipodi:cy="71.705528"
       sodipodi:rx="28.284271"
       sodipodi:ry="28.284271"
       d="M 131.31983,71.705528 A 28.284271,28.284271 0 1 1 74.751289,71.705528 A 28.284271,28.284271 0 1 1 131.31983,71.705528 z" />
    <path
       d="M 131.31983,71.705528 A 28.284271,28.284271 0 1 1 74.751289,71.705528 A 28.284271,28.284271 0 1 1 131.31983,71.705528 z"
       sodipodi:ry="28.284271"
       sodipodi:rx="28.284271"
       sodipodi:cy="71.705528"
       sodipodi:cx="103.03556"
       id="path3172"
       style="opacity:1;fill:#ffffff;fill-opacity:1;stroke:none;stroke-width:2;stroke-miterlimit:4;stroke-dasharray:none;stroke-opacity:1"
       sodipodi:type="arc"
       transform="matrix(1.7857142,0,0,1.7857142,260.47504,-54.319746)" />
    <path
       transform="matrix(1.3571428,0,0,1.3571428,134.92751,69.345227)"
       sodipodi:type="arc"
       style="opacity:1;fill:#ffffff;fill-opacity:1;stroke:none;stroke-width:2;stroke-miterlimit:4;stroke-dasharray:none;stroke-opacity:1"
       id="path3174"
       sodipodi:cx="103.03556"
       sodipodi:cy="71.705528"
       sodipodi:rx="28.284271"
       sodipodi:ry="28.284271"
       d="M 131.31983,71.705528 A 28.284271,28.284271 0 1 1 74.751289,71.705528 A 28.284271,28.284271 0 1 1 131.31983,71.705528 z" />
    <path
       d="M 131.31983,71.705528 A 28.284271,28.284271 0 1 1 74.751289,71.705528 A 28.284271,28.284271 0 1 1 131.31983,71.705528 z"
       sodipodi:ry="28.284271"
       sodipodi:rx="28.284271"
       sodipodi:cy="71.705528"
       sodipodi:cx="103.03556"
       id="path3176"
       style="opacity:1;fill:#ffffff;fill-opacity:1;stroke:none;stroke-width:2;stroke-miterlimit:4;stroke-dasharray:none;stroke-opacity:1"
       sodipodi:type="arc"
       transform="translate(244.45691,12.12183)" />
    <path
       transform="matrix(0.6428571,0,0,0.6428571,317.62081,134.70559)"
       sodipodi:type="arc"
       style="opacity:1;fill:#ffffff;fill-opacity:1;stroke:none;stroke-width:2;stroke-miterlimit:4;stroke-dasharray:none;stroke-opacity:1"
       id="path3178"
       sodipodi:cx="103.03556"
       sodipodi:cy="71.705528"
       sodipodi:rx="28.284271"
       sodipodi:ry="28.284271"
       d="M 131.31983,71.705528 A 28.284271,28.284271 0 1 1 74.751289,71.705528 A 28.284271,28.284271 0 1 1 131.31983,71.705528 z" />
    <path
       d="M 131.31983,71.705528 A 28.284271,28.284271 0 1 1 74.751289,71.705528 A 28.284271,28.284271 0 1 1 131.31983,71.705528 z"
       sodipodi:ry="28.284271"
       sodipodi:rx="28.284271"
       sodipodi:cy="71.705528"
       sodipodi:cx="103.03556"
       id="path3180"
       style="opacity:1;fill:#ffffff;fill-opacity:1;stroke:none;stroke-width:2;stroke-miterlimit:4;stroke-dasharray:none;stroke-opacity:1"
       sodipodi:type="arc"
       transform="matrix(0.6428571,0,0,0.6428571,-37.952883,-18.837596)" />
    <path
       transform="matrix(0.6428571,0,0,0.6428571,107.50908,126.62437)"
       sodipodi:type="arc"
       style="opacity:1;fill:#ffffff;fill-opacity:1;stroke:none;stroke-width:2;stroke-miterlimit:4;stroke-dasharray:none;stroke-opacity:1"
       id="path3182"
       sodipodi:cx="103.03556"
       sodipodi:cy="71.705528"
       sodipodi:rx="28.284271"
       sodipodi:ry="28.284271"
       d="M 131.31983,71.705528 A 28.284271,28.284271 0 1 1 74.751289,71.705528 A 28.284271,28.284271 0 1 1 131.31983,71.705528 z" />
    <path
       d="M 131.31983,71.705528 A 28.284271,28.284271 0 1 1 74.751289,71.705528 A 28.284271,28.284271 0 1 1 131.31983,71.705528 z"
       sodipodi:ry="28.284271"
       sodipodi:rx="28.284271"
       sodipodi:cy="71.705528"
       sodipodi:cx="103.03556"
       id="path3184"
       style="opacity:1;fill:#ffffff;fill-opacity:1;stroke:none;stroke-width:2;stroke-miterlimit:4;stroke-dasharray:none;stroke-opacity:1"
       sodipodi:type="arc"
       transform="matrix(0.6428571,0,0,0.6428571,135.79335,199.35535)" />
    <path
       d="M 131.31983,71.705528 A 28.284271,28.284271 0 1 1 74.751289,71.705528 A 28.284271,28.284271 0 1 1 131.31983,71.705528 z"
       sodipodi:ry="28.284271"
       sodipodi:rx="28.284271"
       sodipodi:cy="71.705528"
       sodipodi:cx="103.03556"
       id="path3186"
       style="opacity:1;fill:#ffffff;fill-opacity:1;stroke:none;stroke-width:2;stroke-miterlimit:4;stroke-dasharray:none;stroke-opacity:1"
       sodipodi:type="arc"
       transform="matrix(1.2857142,0,0,1.2857142,336.23648,120.93407)" />
  </g>
</svg>
