<?xml version="1.0" encoding="UTF-8" standalone="no"?>
<!-- Created with Inkscape (http://www.inkscape.org/) -->
<svg
   xmlns:dc="http://purl.org/dc/elements/1.1/"
   xmlns:cc="http://web.resource.org/cc/"
   xmlns:rdf="http://www.w3.org/1999/02/22-rdf-syntax-ns#"
   xmlns:svg="http://www.w3.org/2000/svg"
   xmlns="http://www.w3.org/2000/svg"
   xmlns:xlink="http://www.w3.org/1999/xlink"
   xmlns:sodipodi="http://inkscape.sourceforge.net/DTD/sodipodi-0.dtd"
   xmlns:inkscape="http://www.inkscape.org/namespaces/inkscape"
   version="1.0"
   width="400pt"
   height="400pt"
   id="svg2"
   sodipodi:version="0.32"
   inkscape:version="0.43"
   sodipodi:docname="icon-wunderground.svg"
   sodipodi:docbase="C:\cygwin\home\Marcio\mozilla\batik\batik-1.6\skin-build\src\extensions">
  <metadata
     id="metadata1681">
    <rdf:RDF>
      <cc:Work
         rdf:about="">
        <dc:format>image/svg+xml</dc:format>
        <dc:type
           rdf:resource="http://purl.org/dc/dcmitype/StillImage" />
      </cc:Work>
    </rdf:RDF>
  </metadata>
  <sodipodi:namedview
     inkscape:window-height="651"
     inkscape:window-width="808"
     inkscape:pageshadow="2"
     inkscape:pageopacity="0.0"
     borderopacity="1.0"
     bordercolor="#666666"
     pagecolor="#ffffff"
     id="base"
     inkscape:zoom="0.748"
     inkscape:cx="271.5911"
     inkscape:cy="149.69719"
     inkscape:window-x="139"
     inkscape:window-y="190"
     inkscape:current-layer="svg2" />
  <defs
     id="defs4">
    <radialGradient
       cx="357.70001"
       cy="378"
       r="394.05002"
       fx="418.05002"
       fy="417.05002"
       id="radial1"
       gradientUnits="userSpaceOnUse"
       spreadMethod="reflect">
      <stop
         style="stop-color:#ff9900;stop-opacity:1"
         offset="0"
         id="stop1435" />
      <stop
         style="stop-color:#ff6633;stop-opacity:1"
         offset="0.58999997"
         id="stop1437" />
      <stop
         style="stop-color:#ff3300;stop-opacity:1"
         offset="1"
         id="stop1439" />
    </radialGradient>
    <radialGradient
       cx="0.07"
       cy="0.97000003"
       r="1.11"
       fx="1.11"
       fy="1.11"
       id="radial1_copy0"
       gradientUnits="objectBoundingBox"
       spreadMethod="pad">
      <stop
         style="stop-color:#66ffff;stop-opacity:1"
         offset="0"
         id="stop1430" />
      <stop
         style="stop-color:#3366ff;stop-opacity:1"
         offset="0.61000001"
         id="stop1432" />
    </radialGradient>
    <radialGradient
       cx="0.92000002"
       cy="1"
       r="0.5"
       fx="0.5"
       fy="0.5"
       id="radial0"
       gradientUnits="objectBoundingBox"
       spreadMethod="reflect">
      <stop
         style="stop-color:#969696;stop-opacity:1;"
         offset="0.09"
         id="stop1425" />
      <stop
         style="stop-color:#ccffff;stop-opacity:1"
         offset="0.69999999"
         id="stop1427" />
    </radialGradient>
    <filter
       xlink:show="other"
       id="MyFilter"
       height="400"
       xlink:actuate="onLoad"
       xlink:type="simple"
       filterUnits="userSpaceOnUse"
       width="450"
       y="0"
       x="0">
      <feGaussianBlur
         id="feGaussianBlur1406"
         in="SourceAlpha"
         result="blur"
         stdDeviation="14" />
      <feOffset
         id="feOffset1408"
         in="blur"
         result="offsetBlur"
         dy="14"
         dx="14" />
      <feSpecularLighting
         id="feSpecularLighting1410"
         lighting-color="#bbbbbb"
         surfaceScale="5"
         in="blur"
         result="specOut"
         specularConstant=".2"
         specularExponent="20">
        <fePointLight
           id="fePointLight1412"
           z="20000"
           y="-10000"
           x="-5000" />
      </feSpecularLighting>
      <feComposite
         id="feComposite1414"
         in="specOut"
         result="specOut"
         operator="in"
         in2="SourceAlpha" />
      <feComposite
         id="feComposite1416"
         operator="arithmetic"
         in2="specOut"
         k4="0"
         k3="1"
         k2="1"
         k1="0"
         in="SourceGraphic"
         result="litPaint" />
      <feMerge
         id="feMerge1418">
        <feMergeNode
           id="feMergeNode1420"
           in="offsetBlur" />
        <feMergeNode
           id="feMergeNode1422"
           in="litPaint" />
      </feMerge>
    </filter>
    <radialGradient
       cx="357.70001"
       cy="378"
       r="394.05002"
       fx="418.05002"
       fy="417.05002"
       id="radialGradient2540"
       xlink:href="#radial1"
       gradientUnits="userSpaceOnUse"
       spreadMethod="reflect" />
    <linearGradient
       inkscape:collect="always"
       xlink:href="#radial0"
       id="linearGradient2747"
       x1="144.30286"
       y1="384.8653"
       x2="144.30286"
       y2="109.46423"
       gradientUnits="userSpaceOnUse"
       spreadMethod="pad"
       gradientTransform="translate(-613.6364,85.56149)" />
    <linearGradient
       inkscape:collect="always"
       xlink:href="#radial0"
       id="linearGradient2767"
       x1="142.89932"
       y1="72.152794"
       x2="142.89935"
       y2="470.02997"
       gradientUnits="userSpaceOnUse"
       gradientTransform="translate(-21.39042,25.40111)" />
    <linearGradient
       inkscape:collect="always"
       xlink:href="#radial0"
       id="linearGradient2777"
       x1="245.4893"
       y1="443.18182"
       x2="318.68182"
       y2="443.18182"
       gradientUnits="userSpaceOnUse"
       gradientTransform="translate(127.0053,-17.37968)" />
    <linearGradient
       inkscape:collect="always"
       xlink:href="#radial0"
       id="linearGradient2781"
       gradientUnits="userSpaceOnUse"
       gradientTransform="translate(40.10695,-19.38502)"
       x1="245.4893"
       y1="443.18182"
       x2="318.68182"
       y2="443.18182" />
    <linearGradient
       inkscape:collect="always"
       xlink:href="#radial0"
       id="linearGradient2785"
       gradientUnits="userSpaceOnUse"
       gradientTransform="translate(-48.12834,-20.72193)"
       x1="245.4893"
       y1="443.18182"
       x2="318.68182"
       y2="443.18182" />
  </defs>
  <path
     sodipodi:type="arc"
     style="opacity:1;fill:#ff1919;fill-opacity:1;fill-rule:nonzero;stroke:none;stroke-width:22;stroke-miterlimit:4;stroke-dasharray:none;stroke-opacity:1"
     id="path2711"
     sodipodi:cx="317.51337"
     sodipodi:cy="294.7861"
     sodipodi:rx="250.66844"
     sodipodi:ry="229.27808"
     d="M 568.18181 294.7861 A 250.66844 229.27808 0 1 1  66.844925,294.7861 A 250.66844 229.27808 0 1 1  568.18181 294.7861 z"
     transform="matrix(1.525334,0,0,1.580175,-93.93932,11.45913)" />
  <path
     sodipodi:type="arc"
     style="opacity:1;fill:#ffff19;fill-opacity:1;fill-rule:nonzero;stroke:none;stroke-width:22;stroke-miterlimit:4;stroke-dasharray:none;stroke-opacity:1"
     id="path2713"
     sodipodi:cx="393.04813"
     sodipodi:cy="324.8663"
     sodipodi:rx="217.91444"
     sodipodi:ry="199.19786"
     d="M 610.96257 324.8663 A 217.91444 199.19786 0 1 1  175.13368,324.8663 A 217.91444 199.19786 0 1 1  610.96257 324.8663 z"
     transform="matrix(1.525334,0,0,1.580175,-206.0962,-35.01661)" />
  <path
     sodipodi:type="arc"
     style="opacity:1;fill:#42f8ff;fill-opacity:1;fill-rule:nonzero;stroke:none;stroke-width:22;stroke-miterlimit:4;stroke-dasharray:none;stroke-opacity:1"
     id="path2715"
     sodipodi:cx="468.58289"
     sodipodi:cy="350.93582"
     sodipodi:rx="166.44385"
     sodipodi:ry="143.71658"
     d="M 635.02673 350.93582 A 166.44385 143.71658 0 1 1  302.13904,350.93582 A 166.44385 143.71658 0 1 1  635.02673 350.93582 z"
     transform="matrix(1.874505,0,0,1.962356,-470.6536,-215.6138)" />
  <path
     sodipodi:type="arc"
     style="opacity:1;fill:#585fff;fill-opacity:1;fill-rule:nonzero;stroke:none;stroke-width:22;stroke-miterlimit:4;stroke-dasharray:none;stroke-opacity:1"
     id="path2719"
     sodipodi:cx="548.79681"
     sodipodi:cy="396.39038"
     sodipodi:rx="143.71658"
     sodipodi:ry="112.96791"
     d="M 692.5134 396.39038 A 143.71658 112.96791 0 1 1  405.08023,396.39038 A 143.71658 112.96791 0 1 1  692.5134 396.39038 z"
     transform="matrix(2.007764,0,0,2.225336,-686.5783,-404.5482)" />
  <path
     style="opacity:1;fill:url(#linearGradient2747);fill-opacity:1;fill-rule:evenodd;stroke:none;stroke-width:1px;stroke-linecap:butt;stroke-linejoin:miter;stroke-opacity:1"
     d="M -672.4599,411.7647 C -609.3319,421.27253 -545.03683,421.12299 -481.28342,421.12299 C -446.13932,421.12299 -410.8752,422.45988 -375.66844,422.45988 C -356.50623,422.45988 -337.34403,422.45988 -318.18182,422.45988 C -290.26658,422.45988 -260.78492,429.14438 -232.62032,429.14438 C -219.73283,429.14438 -215.03211,430.27275 -208.55615,423.79678 C -199.80788,415.04852 -216.29903,398.67422 -221.92513,393.04812 C -234.34013,380.63312 -256.60512,385.22515 -264.70588,364.97325 C -269.31237,353.45704 -281.38408,308.66467 -291.44385,306.14972 C -298.91301,304.28243 -314.67632,332.88769 -328.87701,332.88769 C -344.26218,332.88769 -368.25724,277.50351 -374.33154,267.37967 C -377.52162,262.06288 -401.26011,225.8977 -407.754,224.59892 C -417.15489,222.71875 -409.7516,251.84791 -435.82887,219.25133 C -451.16895,200.07623 -455.0209,175.13369 -481.28342,175.13369 C -495.14378,175.13369 -512.11318,145.42211 -528.07487,139.03743 C -547.42279,131.29826 -565.38233,151.43135 -578.87701,160.42781 C -598.53487,173.53305 -624.68625,163.4563 -641.71123,180.48128 C -675.28375,214.0538 -682.37849,250.12774 -691.17647,294.11764 C -695.41154,315.29299 -705.09065,319.51871 -727.27273,319.51871 C -729.05526,319.51871 -730.83779,319.51871 -732.62032,319.51871"
     id="path2721" />
  <path
     style="fill:url(#linearGradient2767);fill-opacity:1;fill-rule:evenodd;stroke:none;stroke-width:1px;stroke-linecap:butt;stroke-linejoin:miter;stroke-opacity:1"
     d="M -85.561498,362.29946 C -87.323585,362.29946 -65.002011,362.29946 -38.770053,362.29946 C -22.727272,362.29946 -6.6844915,362.29946 9.3582875,362.29946 C 30.748657,362.29946 52.139037,362.29946 73.529407,362.29946 C 129.3942,362.29946 184.25861,364.58414 240.6417,366.31015 C 259.75932,366.89538 279.00016,366.31015 298.12833,366.31015 C 311.49731,366.31015 324.86629,366.31015 338.23528,366.31015 C 345.81104,366.31015 353.38679,366.31015 360.96255,366.31015 C 368.61636,366.31015 372.03693,364.97325 379.67913,364.97325 C 387.79785,364.97325 383.68982,336.81676 383.68982,330.21389 C 383.68982,312.73766 379.2205,301.6609 372.99464,286.09625 C 368.99064,276.08625 352.6289,271.86267 343.58287,270.05347 C 334.46161,268.22921 324.07064,267.91281 315.50801,270.05347 C 308.25326,271.86715 293.96279,232.31062 290.10694,224.59892 C 282.78946,209.96398 274.48094,197.12487 262.03207,187.16577 C 255.36772,181.83429 241.01368,183.15507 232.62031,183.15507 C 216.64366,183.15507 219.99749,189.24883 208.55613,177.80748 C 198.97672,168.22806 193.57102,154.80097 183.15506,144.38502 C 181.57951,142.80947 180.48127,140.81995 179.14437,139.03742 C 171.64861,129.04307 155.82487,129.70962 145.72191,125.66844 C 133.80377,120.90118 122.95838,129.03788 114.97325,135.02673 C 108.26689,140.0565 108.28226,128.33574 98.93047,118.98395 C 87.28803,107.34151 74.096077,104.02132 58.823527,98.930482 C 49.613427,95.860447 32.969257,98.046787 26.737967,104.27807 C 19.517737,111.4983 13.438587,116.17095 9.3582875,124.33154 C 2.6811075,137.6859 -2.9475015,127.80273 -14.705882,118.98395 C -30.670362,107.01059 -48.896508,108.28876 -68.181819,108.28876 C -86.301936,108.28876 -99.144283,118.79677 -116.31016,121.65775 C -127.0679,123.4507 -132.10593,131.36485 -135.02674,143.04812 C -135.96122,146.78602 -140.52077,150.73975 -141.71124,152.40641"
     id="path2751" />
  <path
     style="fill:url(#linearGradient2777);fill-opacity:1;fill-rule:evenodd;stroke:none;stroke-width:1px;stroke-linecap:butt;stroke-linejoin:miter;stroke-opacity:1"
     d="M 372.99465,393.04813 L 419.7861,391.71123 L 445.18717,459.89305"
     id="path2769" />
  <path
     style="fill:url(#linearGradient2781);fill-opacity:1;fill-rule:evenodd;stroke:none;stroke-width:1px;stroke-linecap:butt;stroke-linejoin:miter;stroke-opacity:1"
     d="M 286.09625,391.04279 L 332.8877,389.70589 L 358.28877,457.88771"
     id="path2779" />
  <path
     style="fill:url(#linearGradient2785);fill-opacity:1;fill-rule:evenodd;stroke:none;stroke-width:1px;stroke-linecap:butt;stroke-linejoin:miter;stroke-opacity:1"
     d="M 197.86096,389.70588 L 244.65241,388.36898 L 270.05348,456.5508"
     id="path2783" />
</svg>
