<?xml version="1.0" encoding="UTF-8" standalone="no"?>
<!-- Created with Inkscape (http://www.inkscape.org/) -->
<svg
   xmlns:dc="http://purl.org/dc/elements/1.1/"
   xmlns:cc="http://web.resource.org/cc/"
   xmlns:rdf="http://www.w3.org/1999/02/22-rdf-syntax-ns#"
   xmlns:svg="http://www.w3.org/2000/svg"
   xmlns="http://www.w3.org/2000/svg"
   xmlns:xlink="http://www.w3.org/1999/xlink"
   xmlns:sodipodi="http://inkscape.sourceforge.net/DTD/sodipodi-0.dtd"
   xmlns:inkscape="http://www.inkscape.org/namespaces/inkscape"
   version="1.0"
   width="400"
   height="400"
   viewBox="0 0 400 400"
   id="svg5622"
   sodipodi:version="0.32"
   inkscape:version="0.43"
   sodipodi:docname="icon-pref-advanced.svg"
   sodipodi:docbase="C:\cygwin\home\Marcio\mozilla\batik\batik-1.6\skin-build\src\preferences">
  <metadata
     id="metadata5872">
    <rdf:RDF>
      <cc:Work
         rdf:about="">
        <dc:format>image/svg+xml</dc:format>
        <dc:type
           rdf:resource="http://purl.org/dc/dcmitype/StillImage" />
      </cc:Work>
    </rdf:RDF>
  </metadata>
  <sodipodi:namedview
     inkscape:window-height="540"
     inkscape:window-width="756"
     inkscape:pageshadow="2"
     inkscape:pageopacity="0.0"
     borderopacity="1.0"
     bordercolor="#666666"
     pagecolor="#ffffff"
     id="base"
     inkscape:zoom="0.935"
     inkscape:cx="200"
     inkscape:cy="367.29163"
     inkscape:window-x="198"
     inkscape:window-y="198"
     inkscape:current-layer="svg5622" />
  <defs
     id="defs5624">
    <filter
       xlink:show="other"
       id="MyFilter"
       height="400"
       xlink:actuate="onLoad"
       xlink:type="simple"
       filterUnits="userSpaceOnUse"
       width="450"
       y="0"
       x="0">
      <feGaussianBlur
         id="feGaussianBlur5627"
         in="SourceAlpha"
         result="blur"
         stdDeviation="14" />
      <feOffset
         id="feOffset5629"
         in="blur"
         result="offsetBlur"
         dy="14"
         dx="14" />
      <feSpecularLighting
         id="feSpecularLighting5631"
         lighting-color="#bbbbbb"
         surfaceScale="5"
         in="blur"
         result="specOut"
         specularConstant=".2"
         specularExponent="20">
        <fePointLight
           id="fePointLight5633"
           z="20000"
           y="-10000"
           x="-5000" />
      </feSpecularLighting>
      <feComposite
         id="feComposite5635"
         in="specOut"
         result="specOut"
         operator="in"
         in2="SourceAlpha" />
      <feComposite
         id="feComposite5637"
         operator="arithmetic"
         in2="specOut"
         k4="0"
         k3="1"
         k2="1"
         k1="0"
         in="SourceGraphic"
         result="litPaint" />
      <feMerge
         id="feMerge5639">
        <feMergeNode
           id="feMergeNode5641"
           in="offsetBlur" />
        <feMergeNode
           id="feMergeNode5643"
           in="litPaint" />
      </feMerge>
    </filter>
    <radialGradient
       cx="0.07"
       cy="0.97000003"
       r="1.11"
       fx="1.11"
       fy="1.11"
       id="radial1"
       gradientUnits="objectBoundingBox"
       spreadMethod="pad">
      <stop
         style="stop-color:#a0a0a0;stop-opacity:1"
         offset="0"
         id="stop5646" />
      <stop
         style="stop-color:#f0f0f0;stop-opacity:1"
         offset="0.30500001"
         id="stop5718" />
      <stop
         style="stop-color:#8e8e8e;stop-opacity:1"
         offset="0.61000001"
         id="stop5648" />
    </radialGradient>
    <radialGradient
       cx="0.92000002"
       cy="1"
       r="0.5"
       fx="0.5"
       fy="0.5"
       id="radial0"
       gradientUnits="objectBoundingBox"
       spreadMethod="reflect">
      <stop
         style="stop-color:#0099ff;stop-opacity:1"
         offset="0.09"
         id="stop5651" />
      <stop
         style="stop-color:#ccffff;stop-opacity:1"
         offset="0.69999999"
         id="stop5653" />
    </radialGradient>
    <radialGradient
       cx="0.33000001"
       cy="0.22"
       r="1.11"
       fx="1.11"
       fy="1.11"
       id="radial1_copy0"
       gradientUnits="objectBoundingBox"
       spreadMethod="pad">
      <stop
         style="stop-color:#66ffff;stop-opacity:1"
         offset="0.09"
         id="stop5656" />
      <stop
         style="stop-color:#3366ff;stop-opacity:1"
         offset="0.61000001"
         id="stop5658" />
    </radialGradient>
    <radialGradient
       cx="0.5"
       cy="0.5"
       r="0.5"
       fx="0.5"
       fy="0.5"
       id="radial2"
       gradientUnits="objectBoundingBox"
       spreadMethod="pad">
      <stop
         style="stop-color:#000000;stop-opacity:1"
         offset="0"
         id="stop5661" />
    </radialGradient>
    <radialGradient
       cx="0.5"
       cy="0.56"
       r="0.76999998"
       fx="0.55000001"
       fy="0.55000001"
       id="radial1_copy1"
       gradientUnits="objectBoundingBox"
       spreadMethod="pad">
      <stop
         style="stop-color:#99ff66;stop-opacity:1"
         offset="0.1"
         id="stop5664" />
      <stop
         style="stop-color:#33ff00;stop-opacity:1"
         offset="0.41999999"
         id="stop5666" />
      <stop
         style="stop-color:#00cc33;stop-opacity:1"
         offset="0.74000001"
         id="stop5668" />
      <stop
         style="stop-color:#006600;stop-opacity:1"
         offset="1"
         id="stop5670" />
    </radialGradient>
    <linearGradient
       x1="318.03558"
       y1="297.3262"
       x2="4.2780724"
       y2="-113.58469"
       id="linearGradient5716"
       xlink:href="#radial1"
       gradientUnits="userSpaceOnUse" />
    <linearGradient
       x1="255.61497"
       y1="103.74332"
       x2="20.320858"
       y2="346.52408"
       id="linearGradient5726"
       xlink:href="#radial1"
       gradientUnits="userSpaceOnUse" />
  </defs>
  <g
     filter="url(#MyFilter)"
     id="g5868">
    <path
       d="M 189,27.59375 C 184.39884,27.69528 179.87959,28.027391 175.375,28.5 L 160.125,78.8125 C 158.49869,79.269016 156.87887,79.75861 155.28125,80.28125 L 113.8125,47.8125 C 102.12748,54.245291 91.246284,62.044481 81.46875,71.03125 L 98.4375,120 C 97.209947,121.55257 96.02604,123.13672 94.875,124.75 L 43.28125,122.90625 C 37.63303,134.81373 33.296998,147.4894 30.53125,160.75 L 72.6875,190.125 C 72.640241,191.50753 72.65625,192.88728 72.65625,194.28125 C 72.656252,195.01205 72.64321,195.77228 72.65625,196.5 L 29.5625,225.5 C 31.883898,238.66959 35.718784,251.33219 40.875,263.25 L 93.71875,262.1875 C 94.855149,263.83828 96.03449,265.44155 97.25,267.03125 L 78.71875,317.78125 C 87.977019,326.6872 98.256148,334.53124 109.34375,341.09375 L 153.40625,307.6875 L 153.4375,307.6875 C 155.0382,308.2401 156.65075,308.76412 158.28125,309.25 L 173.5625,362.75 C 179.78985,363.47225 186.14555,363.84375 192.5625,363.84375 C 199.05989,363.84375 205.47819,363.45897 211.78125,362.71875 L 228.125,308.84375 C 229.3556,308.46154 230.59918,308.07667 231.8125,307.65625 L 275.09375,341.5 C 286.50717,334.82402 297.07057,326.80231 306.5625,317.65625 L 288.6875,266 C 289.24794,265.25011 289.80056,264.51326 290.34375,263.75 L 343.21875,265.625 C 348.79259,253.28253 352.93741,240.16435 355.4375,226.4375 L 312.46875,196.5 C 312.48179,195.77228 312.5,195.01206 312.5,194.28125 C 312.49999,194.18005 312.50024,194.10113 312.5,194 L 355.46875,165.09375 C 352.9432,151.19394 348.70558,137.88495 343.03125,125.40625 L 291.4375,126.4375 C 290.90065,125.65713 290.3672,124.86064 289.8125,124.09375 L 307.71875,74.9375 C 297.9752,65.361583 287.09908,56.996571 275.28125,50.0625 L 233.625,81.59375 C 232.43531,81.159963 231.2069,80.74058 230,80.34375 L 215.375,29.1875 C 207.91483,28.142269 200.30411,27.59375 192.5625,27.59375 C 192.2054,27.593751 191.85659,27.591452 191.5,27.59375 C 191.14482,27.596033 190.79215,27.589194 190.4375,27.59375 C 190.12002,27.597832 189.7857,27.58773 189.46875,27.59375 C 189.32018,27.596573 189.14842,27.590475 189,27.59375 z M 193.71875,119.78125 C 194.03145,119.77728 194.34261,119.78125 194.65625,119.78125 C 234.8017,119.78125 267.375,152.35455 267.375,192.5 C 267.37501,232.64545 234.8017,265.25 194.65625,265.25 C 154.5108,265.25001 121.9375,232.64545 121.9375,192.5 C 121.9375,152.66818 154.00571,120.28485 193.71875,119.78125 z "
       style="opacity:1;fill:url(#linearGradient5716);fill-opacity:1;fill-rule:nonzero;stroke:none;stroke-opacity:1"
       id="path5210" />
  </g>
</svg>
