<svg contentScriptType="text/ecmascript" width="400" xmlns:xlink="http://www.w3.org/1999/xlink" zoomAndPan="magnify" contentStyleType="text/css" viewBox="0 0 400.0 400.0" height="400" preserveAspectRatio="xMidYMid meet" xmlns="http://www.w3.org/2000/svg" version="1.0">
<defs>
 <filter x="0" y="0" width="450" filterUnits="userSpaceOnUse" xlink:type="simple" xlink:actuate="onLoad" height="400" id="MyFilter" xlink:show="other">
      <feGaussianBlur stdDeviation="14" result="blur" in="SourceAlpha"/>
      <feOffset dx="14" dy="14" result="offsetBlur" in="blur"/>
      <feSpecularLighting specularExponent="20" specularConstant=".2" result="specOut" in="blur" surfaceScale="5" lighting-color="#bbbbbb">
        <fePointLight x="-5000" y="-10000" z="20000"/>
      </feSpecularLighting>
      <feComposite in2="SourceAlpha" operator="in" result="specOut" in="specOut"/>
      <feComposite result="litPaint" in="SourceGraphic" k1="0" k2="1" k3="1" k4="0" in2="specOut" operator="arithmetic"/>
      <feMerge>
        <feMergeNode in="offsetBlur"/>
        <feMergeNode in="litPaint"/>
      </feMerge>
    </filter>
<radialGradient gradientTransform="" id="radial1" gradientUnits="objectBoundingBox" spreadMethod="pad" xlink:show="other" xlink:type="simple" r="111%" cx="7%" fx="111%" fy="111%" cy="97%" xlink:actuate="onLoad">
<stop offset="0%" style="stop-color:#ffff00;stop-opacity:1;"/>
<stop offset="61%" style="stop-color:#ff9900;stop-opacity:1;"/>
</radialGradient>
<radialGradient gradientTransform="" id="radial0" gradientUnits="objectBoundingBox" spreadMethod="reflect" xlink:show="other" xlink:type="simple" r="50%" cx="92%" fx="50%" fy="50%" cy="100%" xlink:actuate="onLoad">
<stop offset="9%" style="stop-color:#0099ff;stop-opacity:1;"/>
<stop offset="70%" style="stop-color:#ccffff;stop-opacity:1;"/>
</radialGradient>
<radialGradient gradientTransform="" id="radial1_copy0" gradientUnits="objectBoundingBox" spreadMethod="pad" xlink:show="other" xlink:type="simple" r="111%" cx="33%" fx="111%" cy="22%" fy="111%" xlink:actuate="onLoad">
<stop offset="9%" style="stop-color:#66ffff;stop-opacity:1;"/>
<stop offset="61%" style="stop-color:#3366ff;stop-opacity:1;"/>
</radialGradient>
<radialGradient gradientTransform="" id="radial2" gradientUnits="objectBoundingBox" spreadMethod="pad" xlink:show="other" xlink:type="simple" r="50%" cx="50%" fx="50%" cy="50%" fy="50%" xlink:actuate="onLoad">
<stop style="stop-color:#000000;stop-opacity:1.0;" offset="0%"/>
</radialGradient>
<radialGradient gradientTransform="" id="radial1_copy1" gradientUnits="objectBoundingBox" spreadMethod="pad" xlink:show="other" xlink:type="simple" r="77%" cx="50%" fx="55%" cy="56%" fy="55%" xlink:actuate="onLoad">
<stop style="stop-color:#ffcc00;stop-opacity:1;" offset="16%"/>
<stop offset="49%" style="stop-color:#ffff00;stop-opacity:1;"/>
<stop offset="94%" style="stop-color:#ff9900;stop-opacity:1;"/>
</radialGradient>
<radialGradient gradientTransform="" id="radial3" gradientUnits="objectBoundingBox" spreadMethod="pad" xlink:show="other" xlink:type="simple" r="50%" cx="50%" fx="50%" cy="50%" fy="50%" xlink:actuate="onLoad">
<stop style="stop-color:#000000;stop-opacity:1.0;" offset="0%"/>
</radialGradient>
<radialGradient gradientTransform="" id="radial1_copy1_copy0" gradientUnits="objectBoundingBox" spreadMethod="pad" xlink:show="other" xlink:type="simple" r="77%" cx="50%" fx="55%" fy="55%" cy="56%" xlink:actuate="onLoad">
<stop style="stop-color:#666666;stop-opacity:1;" offset="26%"/>
<stop offset="50%" style="stop-color:#ffffff;stop-opacity:1;"/>
<stop offset="73%" style="stop-color:#666666;stop-opacity:1;"/>
</radialGradient>
</defs>
<g filter="url(#MyFilter)">
<circle r="118" style="fill:url(#radial1_copy1_copy0);" cx="215" cy="136" transform="matrix( 1, 0, 0, 1, -21, 6)"/>
<rect x="38" y="141" transform="matrix( 1, 0, 0, 0.9770642201834863, 0, 8.188073394495405)" width="319" style="fill:url(#radial1_copy1);" height="214"/>
<rect x="53" y="160" transform="matrix( 1, 0, 0, 1, 0, 0)" width="288" style="fill:url(#radial1);" height="181"/>
<rect x="55" y="160" transform="matrix( 1, 0, 0, 1, 0, 0)" width="1" style="fill:#ffffff;" height="1"/>
<rect x="53" y="160" transform="matrix( 1, 0, 0, 1, 0, 0)" width="287" style="fill:#996600;" height="13"/>
<rect x="53" y="160" transform="matrix( 1, 0, 0, 1, 0, 167)" width="287" style="fill:#996600;" height="13" id="0"/>
<rect x="53" y="160" transform="matrix( 1, 0, 0, 1, 0, 13)" width="287" style="fill:#ffff00;" height="13" id="1"/>
<rect x="187" y="205" transform="matrix( 1, 0, 0, 1, 0, 0)" width="20" style="fill:#333300;" height="91"/>
<rect x="162" y="228" transform="matrix( 1, 0, 0, 1, 7, 1)" width="56" style="fill:#333300;" height="40"/>
</g>
<rect x="206" y="205" transform="matrix( 1, 0, 0, 1.074074074074074, 0, -15.037037037037013)" width="8" style="fill:#003333;" height="23"/>
<rect x="225" width="7" y="228" height="41" style="fill:#000000;"/>
<rect x="207" width="7" y="269" height="26" style="fill:#000000;"/>
</svg>
