<svg contentScriptType="text/ecmascript" width="400" xmlns:xlink="http://www.w3.org/1999/xlink" zoomAndPan="magnify" contentStyleType="text/css" viewBox="0 0 400.0 400.0" height="400" preserveAspectRatio="xMidYMid meet" xmlns="http://www.w3.org/2000/svg" version="1.0">
<defs>
 <filter x="0" y="0" width="450" filterUnits="userSpaceOnUse" xlink:type="simple" xlink:actuate="onLoad" height="400" id="MyFilter" xlink:show="other">
      <feGaussianBlur stdDeviation="14" result="blur" in="SourceAlpha"/>
      <feOffset dx="14" dy="14" result="offsetBlur" in="blur"/>
      <feSpecularLighting specularExponent="20" specularConstant=".2" result="specOut" in="blur" surfaceScale="5" lighting-color="#bbbbbb">
        <fePointLight x="-5000" y="-10000" z="20000"/>
      </feSpecularLighting>
      <feComposite in2="SourceAlpha" operator="in" result="specOut" in="specOut"/>
      <feComposite result="litPaint" in="SourceGraphic" k1="0" k2="1" k3="1" k4="0" in2="specOut" operator="arithmetic"/>
      <feMerge>
        <feMergeNode in="offsetBlur"/>
        <feMergeNode in="litPaint"/>
      </feMerge>
    </filter>
<radialGradient gradientTransform="" id="radial0" gradientUnits="objectBoundingBox" spreadMethod="reflect" xlink:show="other" xlink:type="simple" r="50%" cx="92%" fx="50%" fy="50%" cy="100%" xlink:actuate="onLoad">
<stop offset="9%" style="stop-color:#0099ff;stop-opacity:1;"/>
<stop offset="70%" style="stop-color:#ccffff;stop-opacity:1;"/>
</radialGradient>
<radialGradient gradientTransform="" id="radial1_copy0" gradientUnits="objectBoundingBox" spreadMethod="pad" xlink:show="other" xlink:type="simple" r="111%" cx="7%" fx="111%" fy="111%" cy="97%" xlink:actuate="onLoad">
<stop offset="0%" style="stop-color:#66ffff;stop-opacity:1;"/>
<stop offset="61%" style="stop-color:#3366ff;stop-opacity:1;"/>
</radialGradient>
<radialGradient gradientTransform="" id="radial1" gradientUnits="objectBoundingBox" spreadMethod="reflect" xlink:show="other" xlink:type="simple" r="111%" cx="94%" fx="111%" cy="100%" fy="111%" xlink:actuate="onLoad">
<stop offset="0%" style="stop-color:#ff9900;stop-opacity:1;"/>
<stop offset="59%" style="stop-color:#ff6633;stop-opacity:1;"/>
<stop style="stop-color:#ff3300;stop-opacity:1;" offset="100%"/>
</radialGradient>
</defs>
<polygon id="fundo"  filter="url(#MyFilter)" style="stroke:none;fill:#993300;" transform="matrix( 1, 0, 0, 1, -14, -15)" points="50,24 24,49 24,350 51,378 350,378 379,348 379,51 350,23 204,23 "/>
<polygon id="0" style="stroke:none;fill:url(#radial1);" transform="matrix( 0.8507042253521128, 0, 0, 0.8704225352112676, 15.583098591549302, 7.98028169014087)" points="50,24 24,49 24,350 51,378 350,378 379,348 379,51 350,23 204,23 "/>
<g id="2" filter="url(#MyFilter)">
<polygon style="stroke:none;fill:#ffffff;" transform="matrix( 0.5625596270323516, 0, 0, 0.5796871641360007, 77.82072659247568, 70.41724661534788)" points="22,313 55,349 351,53 315,17 "/>
<polygon id="1" style="stroke:none;fill:#ffffff;" transform="matrix( 0, 0.5850011435104744, -0.5574494998332447, -0, 288.2745623722404, 67.39727160461922)" points="22,313 55,349 351,53 315,17 "/>
</g>
</svg>
