<svg contentScriptType="text/ecmascript" xmlns:xlink="http://www.w3.org/1999/xlink" zoomAndPan="magnify" contentStyleType="text/css" width="767px" height="165px"  viewBox="0 0 767 165" preserveAspectRatio="xMidYMid meet" xmlns="http://www.w3.org/2000/svg" version="1.0">

<g>

<image x="0" y="0" width="36px" height="22px"
	         xlink:href="../../biblioteca/Toolbar/icone-ativo-back.svg">
</image>

<image x="0" y="24" width="36px" height="22px"
	         xlink:href="../../biblioteca/Toolbar/icone-ativo-back.svg">
</image>

<image x="0" y="48" width="36px" height="22px" opacity=".5"
	         xlink:href="../../biblioteca/Toolbar/icone-ativo-back.svg">
</image>

<!-- botoes da direita -->

<image x="36" y="0" width="36px" height="22px"
	         xlink:href="../../biblioteca/Toolbar/icone-ativo-forward.svg">
</image>

<image x="36" y="24" width="36px" height="22px"
	         xlink:href="../../biblioteca/Toolbar/icone-ativo-forward.svg">
</image>

<image x="36" y="48" width="36px" height="22px" opacity=".5"
	         xlink:href="../../biblioteca/Toolbar/icone-ativo-forward.svg">
</image>

<!-- botoes reload -->

<image x="72" y="0" width="36px" height="22px"
	         xlink:href="../../biblioteca/Toolbar/icone-ativo-reload.svg">
</image>

<image x="72" y="24" width="36px" height="22px" opacity="0.5"
	         xlink:href="../../biblioteca/Toolbar/icone-ativo-reload.svg">
</image>

<image x="72" y="48" width="36px" height="22px"
	         xlink:href="../../biblioteca/Toolbar/icone-ativo-reload.svg">
</image>


<!-- botoes stop -->

<image x="108" y="0" width="36px" height="22px"
	         xlink:href="../../biblioteca/Toolbar/icone-ativo-stop.svg">
</image>

<image x="108" y="24" width="36px" height="22px" opacity="0.5"
	         xlink:href="../../biblioteca/Toolbar/icone-ativo-stop.svg">
</image>

<image x="108" y="48" width="36px" height="22px" 
	         xlink:href="../../biblioteca/Toolbar/icone-ativo-stop.svg">
</image>

<!-- botoes home -->

<image x="144" y="0" width="36px" height="22px"
	         xlink:href="../../biblioteca/Toolbar/icone-ativo-home.svg">
</image>

<image x="144" y="24" width="36px" height="22px" opacity="0.5"
	         xlink:href="../../biblioteca/Toolbar/icone-ativo-home.svg">
</image>

<image x="144" y="48" width="36px" height="22px" 
	         xlink:href="../../biblioteca/Toolbar/icone-ativo-home.svg">
</image>


<!--  Integrated button --> 

<image x="504" y="0" width="78px" height="33px"
	         xlink:href="../../biblioteca/Toolbar/buttons-integrated.svg">
</image>
<image x="504" y="33" width="78px" height="33px" opacity=".5"
	         xlink:href="../../biblioteca/Toolbar/buttons-integrated.svg">
</image>
<image x="504" y="66" width="78px" height="33px"
	         xlink:href="../../biblioteca/Toolbar/buttons-integrated-active.svg">
</image>


</g>

</svg>
