<svg contentScriptType="text/ecmascript" width="400" xmlns:xlink="http://www.w3.org/1999/xlink" zoomAndPan="magnify" contentStyleType="text/css" viewBox="0 0 400.0 400.0" height="400" preserveAspectRatio="xMidYMid meet" xmlns="http://www.w3.org/2000/svg" version="1.0">
<defs>
 <filter x="0" y="0" width="450" filterUnits="userSpaceOnUse" xlink:type="simple" xlink:actuate="onLoad" height="400" id="MyFilter" xlink:show="other">
      <feGaussianBlur stdDeviation="14" result="blur" in="SourceAlpha"/>
      <feOffset dx="14" dy="14" result="offsetBlur" in="blur"/>
      <feSpecularLighting specularExponent="20" specularConstant=".2" result="specOut" in="blur" surfaceScale="5" lighting-color="#bbbbbb">
        <fePointLight x="-5000" y="-10000" z="20000"/>
      </feSpecularLighting>
      <feComposite in2="SourceAlpha" operator="in" result="specOut" in="specOut"/>
      <feComposite result="litPaint" in="SourceGraphic" k1="0" k2="1" k3="1" k4="0" in2="specOut" operator="arithmetic"/>
      <feMerge>
        <feMergeNode in="offsetBlur"/>
        <feMergeNode in="litPaint"/>
      </feMerge>
    </filter>
<radialGradient gradientTransform="" id="radial0" gradientUnits="objectBoundingBox" spreadMethod="reflect" xlink:show="other" xlink:type="simple" r="50%" cx="92%" fx="50%" fy="50%" cy="100%" xlink:actuate="onLoad">
<stop offset="9%" style="stop-color:#0099ff;stop-opacity:1;"/>
<stop offset="70%" style="stop-color:#ccffff;stop-opacity:1;"/>
</radialGradient>
<radialGradient gradientTransform="" id="radial1_copy0" gradientUnits="objectBoundingBox" spreadMethod="pad" xlink:show="other" xlink:type="simple" r="111%" cx="7%" fx="111%" fy="111%" cy="97%" xlink:actuate="onLoad">
<stop offset="0%" style="stop-color:#66ffff;stop-opacity:1;"/>
<stop offset="61%" style="stop-color:#3366ff;stop-opacity:1;"/>
</radialGradient>
<radialGradient gradientTransform="" id="radial1" gradientUnits="objectBoundingBox" spreadMethod="reflect" xlink:show="other" xlink:type="simple" r="111%" cx="7%" fx="111%" cy="97%" fy="111%" xlink:actuate="onLoad">
<stop offset="0%" style="stop-color:#ffff00;stop-opacity:1;"/>
<stop offset="61%" style="stop-color:#ff9900;stop-opacity:1;"/>
</radialGradient>
</defs>
<g id="8" filter="url(#MyFilter)">
<polygon style="stroke:none;fill:url(#radial1);" transform="matrix( 1.1342099848884148, 0, 0, 1.108524618572102, -25.49989700560144, -40.48787480457318)" points="78,273 95,292 299,110 279,92 "/>
<circle transform="matrix( 1.1342099848884148, 0, 0, 1.108524618572102, -35.70778686959718, -34.945251711712665)" style="fill:url(#radial1);" r="82.5" cx="196.5" cy="191.5"/>
<rect x="50" y="178" transform="matrix( 1.1342099848884148, 0, 0, 1.108524618572102, -23.23147703582461, -36.05377633028477)" width="278" style="fill:url(#radial1);" height="26"/>
<rect x="173" y="63" transform="matrix( 1.1342099848884148, 0, 0, 1.108524618572102, -20.96305706604778, -33.83672709314057)" width="25" style="fill:url(#radial1);" height="258"/>
<polygon id="0" style="stroke:none;fill:url(#radial1);" transform="matrix( -0, -1.108524618572102, 1.1342099848884148, 0, -31.738051922487728, 383.52279179925597)" points="78,273 95,292 299,110 279,92 "/>

<circle r="45" style="fill:#000000;" cx="179" transform="matrix( 1.424063647693232, 0, 0, 1.3425464824928792, -67.7429177761122, -82.64876113093212)" cy="192"/>
<rect x="177" y="149" transform="matrix( 1.1342099848884148, 0, 0, 1.108524618572102, -23.23147703582461, -36.05377633028477)" width="20" style="fill:url(#radial1);" height="83"/>
<rect x="136" y="182" transform="matrix( 1.1342099848884148, 0, 0, 1.108524618572102, -23.23147703582461, -36.05377633028477)" width="96" style="fill:url(#radial1);" height="19"/>
<circle r="19.5" style="fill:url(#radial1);" cx="86.5" transform="matrix( 1.1342099848884148, 0, 0, 1.108524618572102, -17.560427111382534, -33.83672709314057)" cy="84.5"/>
<circle transform="matrix( 1.1342099848884148, 0, 0, 1.108524618572102, 90.18952145301688, -54.89869484601051)" style="fill:url(#radial1);" r="19.5" cx="86.5" cy="84.5" id="1"/>
<circle transform="matrix( 1.1342099848884148, 0, 0, 1.108524618572102, 203.61051994185834, -21.64295628884744)" style="fill:url(#radial1);" r="19.5" cx="86.5" cy="84.5" id="2"/>
<circle transform="matrix( 1.1342099848884148, 0, 0, 1.108524618572102, -61.79461652203072, 81.44983323835807)" style="fill:url(#radial1);" r="19.5" cx="86.5" cy="84.5" id="3"/>
<circle transform="matrix( 1.1342099848884148, 0, 0, 1.108524618572102, 187.73158015342054, 191.19377047699618)" style="fill:url(#radial1);" r="19.5" cx="86.5" cy="84.5" id="4"/>
<circle transform="matrix( 1.1342099848884148, 0, 0, 1.108524618572102, -23.23147703582461, 177.89147505413095)" style="fill:url(#radial1);" r="19.5" cx="86.5" cy="84.5" id="5"/>
<circle transform="matrix( 1.1342099848884148, 0, 0, 1.108524618572102, 90.18952145301688, 225.55803365273132)" style="fill:url(#radial1);" r="19.5" cx="86.5" cy="84.5" id="6"/>
<circle transform="matrix( 1.1342099848884148, 0, 0, 1.108524618572102, 245.57628938272973, 82.55835785693014)" style="fill:url(#radial1);" r="19.5" cx="86.5" cy="84.5" id="7"/>
</g>
</svg>
